<svg version="1.1" viewBox="0.0 0.0 960.0 540.0" fill="none" stroke="none" stroke-linecap="square" stroke-miterlimit="10" xmlns:xlink="http://www.w3.org/1999/xlink" xmlns="http://www.w3.org/2000/svg"><clipPath id="ga95c7b0bf8_0_0.0"><path d="m0 0l960.0 0l0 540.0l-960.0 0l0 -540.0z" clip-rule="nonzero"/></clipPath><g clip-path="url(#ga95c7b0bf8_0_0.0)"><path fill="#ffffff" d="m0 0l960.0 0l0 540.0l-960.0 0z" fill-rule="evenodd"/><path fill="#000000" fill-opacity="0.0" d="m234.979 112.93266l0 0c0 -24.933037 20.21222 -45.145264 45.145264 -45.145264l388.6386 0c11.973267 0 23.456116 4.756363 31.922485 13.22274c8.466431 8.466385 13.222778 19.949257 13.222778 31.922523l0 180.5756c0 24.933044 -20.21222 45.145264 -45.145264 45.145264l-388.6386 0c-24.933044 0 -45.145264 -20.21222 -45.145264 -45.145264z" fill-rule="evenodd"/><path stroke="#17a2ee" stroke-width="1.0" stroke-linejoin="round" stroke-linecap="butt" d="m234.979 112.93266l0 0c0 -24.933037 20.21222 -45.145264 45.145264 -45.145264l388.6386 0c11.973267 0 23.456116 4.756363 31.922485 13.22274c8.466431 8.466385 13.222778 19.949257 13.222778 31.922523l0 180.5756c0 24.933044 -20.21222 45.145264 -45.145264 45.145264l-388.6386 0c-24.933044 0 -45.145264 -20.21222 -45.145264 -45.145264z" fill-rule="evenodd"/><path fill="#ffffff" d="m403.62384 49.0366l0 0c0 -5.404091 4.3808594 -9.784969 9.784973 -9.784969l133.81586 0c2.5951538 0 5.0839844 1.0309105 6.9190063 2.8659515c1.835083 1.8350372 2.8659668 4.323883 2.8659668 6.919018l0 39.138718c0 5.404091 -4.3808594 9.784973 -9.784973 9.784973l-133.81586 0l0 0c-5.404114 0 -9.784973 -4.3808823 -9.784973 -9.784973z" fill-rule="evenodd"/><path stroke="#1155cc" stroke-width="1.0" stroke-linejoin="round" stroke-linecap="butt" d="m403.62384 49.0366l0 0c0 -5.404091 4.3808594 -9.784969 9.784973 -9.784969l133.81586 0c2.5951538 0 5.0839844 1.0309105 6.9190063 2.8659515c1.835083 1.8350372 2.8659668 4.323883 2.8659668 6.919018l0 39.138718c0 5.404091 -4.3808594 9.784973 -9.784973 9.784973l-133.81586 0l0 0c-5.404114 0 -9.784973 -4.3808823 -9.784973 -9.784973z" fill-rule="evenodd"/><path fill="#261495" d="m428.8773 73.59908l3.3125 -0.515625q0.203125 0.96875 0.84375 1.46875q0.65625 0.5 1.8125 0.5q1.28125 0 1.921875 -0.46875q0.4375 -0.328125 0.4375 -0.890625q0 -0.375 -0.234375 -0.609375q-0.25 -0.234375 -1.109375 -0.4375q-3.984375 -0.875 -5.046875 -1.609375q-1.484375 -1.0 -1.484375 -2.796875q0 -1.625 1.28125 -2.71875q1.28125 -1.109375 3.96875 -1.109375q2.546875 0 3.78125 0.84375q1.25 0.828125 1.71875 2.453125l-3.109375 0.578125q-0.1875 -0.734375 -0.75 -1.109375q-0.5625 -0.390625 -1.59375 -0.390625q-1.296875 0 -1.859375 0.359375q-0.375 0.265625 -0.375 0.671875q0 0.34375 0.328125 0.59375q0.453125 0.328125 3.078125 0.9375q2.625 0.59375 3.671875 1.453125q1.03125 0.875 1.03125 2.453125q0 1.703125 -1.4375 2.9375q-1.421875 1.234375 -4.21875 1.234375q-2.546875 0 -4.03125 -1.03125q-1.484375 -1.03125 -1.9375 -2.796875zm25.832031 3.546875l-3.296875 0l0 -6.359375q0 -2.015625 -0.21875 -2.59375q-0.203125 -0.59375 -0.6875 -0.921875q-0.46875 -0.328125 -1.125 -0.328125q-0.859375 0 -1.546875 0.46875q-0.671875 0.46875 -0.921875 1.25q-0.25 0.765625 -0.25 2.84375l0 5.640625l-3.296875 0l0 -12.453125l3.0625 0l0 1.828125q1.625 -2.109375 4.09375 -2.109375q1.09375 0 1.984375 0.40625q0.90625 0.390625 1.375 1.0q0.46875 0.609375 0.640625 1.390625q0.1875 0.765625 0.1875 2.203125l0 7.734375zm5.8007812 -8.65625l-2.984375 -0.53125q0.5 -1.8125 1.71875 -2.671875q1.234375 -0.875 3.671875 -0.875q2.203125 0 3.28125 0.53125q1.078125 0.515625 1.515625 1.328125q0.4375 0.796875 0.4375 2.9375l-0.03125 3.84375q0 1.640625 0.15625 2.421875q0.15625 0.78125 0.59375 1.671875l-3.265625 0q-0.125 -0.328125 -0.3125 -0.96875q-0.078125 -0.296875 -0.125 -0.390625q-0.84375 0.8125 -1.8125 1.234375q-0.953125 0.40625 -2.03125 0.40625q-1.921875 0 -3.03125 -1.046875q-1.109375 -1.046875 -1.109375 -2.640625q0 -1.046875 0.5 -1.875q0.5 -0.828125 1.40625 -1.265625q0.921875 -0.4375 2.625 -0.765625q2.3125 -0.4375 3.203125 -0.8125l0 -0.328125q0 -0.953125 -0.46875 -1.34375q-0.46875 -0.40625 -1.765625 -0.40625q-0.890625 0 -1.390625 0.34375q-0.484375 0.34375 -0.78125 1.203125zm4.40625 2.671875q-0.640625 0.21875 -2.015625 0.515625q-1.359375 0.28125 -1.78125 0.5625q-0.640625 0.46875 -0.640625 1.171875q0 0.6875 0.515625 1.1875q0.515625 0.5 1.3125 0.5q0.890625 0 1.6875 -0.578125q0.609375 -0.453125 0.796875 -1.09375q0.125 -0.421875 0.125 -1.609375l0 -0.65625zm6.3789062 -6.46875l3.078125 0l0 1.828125q0.59375 -0.9375 1.609375 -1.515625q1.03125 -0.59375 2.265625 -0.59375q2.171875 0 3.671875 1.703125q1.515625 1.703125 1.515625 4.734375q0 3.125 -1.53125 4.859375q-1.515625 1.71875 -3.671875 1.71875q-1.03125 0 -1.875 -0.40625q-0.84375 -0.421875 -1.765625 -1.40625l0 6.265625l-3.296875 0l0 -17.1875zm3.265625 6.015625q0 2.09375 0.828125 3.109375q0.828125 1.0 2.03125 1.0q1.140625 0 1.90625 -0.921875q0.765625 -0.921875 0.765625 -3.015625q0 -1.96875 -0.796875 -2.90625q-0.78125 -0.953125 -1.9375 -0.953125q-1.203125 0 -2.0 0.9375q-0.796875 0.921875 -0.796875 2.75zm10.050781 -6.015625l1.828125 0l0 -0.9375038q0 -1.5625 0.328125 -2.328125q0.34375 -0.78125 1.234375 -1.265625q0.90625 -0.484375 2.265625 -0.484375q1.40625 0 2.765625 0.421875l-0.453125 2.296875q-0.78125 -0.1875 -1.515625 -0.1875q-0.703125 0 -1.015625 0.328125q-0.3125 0.328125 -0.3125 1.28125l0 0.8750038l2.453125 0l0 2.59375l-2.453125 0l0 9.859375l-3.296875 0l0 -9.859375l-1.828125 0l0 -2.59375zm9.4296875 12.453125l0 -17.187504l3.296875 0l0 17.187504l-3.296875 0zm5.9179688 -6.40625q0 -1.640625 0.796875 -3.171875q0.8125 -1.53125 2.296875 -2.34375q1.484375 -0.8125 3.3125 -0.8125q2.828125 0 4.625 1.84375q1.8125305 1.828125 1.8125305 4.625q0 2.828125 -1.8281555 4.6875q-1.828125 1.859375 -4.59375 1.859375q-1.703125 0 -3.265625 -0.765625q-1.546875 -0.78125 -2.359375 -2.265625q-0.796875 -1.5 -0.796875 -3.65625zm3.375 0.1875q0 1.84375 0.875 2.828125q0.875 0.984375 2.171875 0.984375q1.28125 0 2.15625 -0.984375q0.875 -0.984375 0.875 -2.859375q0 -1.828125 -0.875 -2.8125q-0.875 -0.984375 -2.15625 -0.984375q-1.296875 0 -2.171875 0.984375q-0.875 0.984375 -0.875 2.84375zm14.363312 6.21875l-3.9375 -12.453125l3.203125 0l2.328125 8.15625l2.140625 -8.15625l3.171875 0l2.078125 8.15625l2.375 -8.15625l3.25 0l-4.0 12.453125l-3.15625 0l-2.140625 -8.0l-2.109375 8.0l-3.203125 0z" fill-rule="nonzero"/><path fill="#ffffff" d="m488.89017 332.64288l15.039368 -15.039368l15.039398 15.039368l-7.5197144 0l0 22.881897l-15.039368 0l0 -22.881897z" fill-rule="evenodd"/><path stroke="#1155cc" stroke-width="1.0" stroke-linejoin="round" stroke-linecap="butt" d="m488.89017 332.64288l15.039368 -15.039368l15.039398 15.039368l-7.5197144 0l0 22.881897l-15.039368 0l0 -22.881897z" fill-rule="evenodd"/><path fill="#ffffff" d="m471.74353 345.51913l-15.039368 15.039368l-15.039368 -15.039368l7.519684 0l0 -22.881897l15.039368 0l0 22.881897z" fill-rule="evenodd"/><path stroke="#1155cc" stroke-width="1.0" stroke-linejoin="round" stroke-linecap="butt" d="m471.74353 345.51913l-15.039368 15.039368l-15.039368 -15.039368l7.519684 0l0 -22.881897l15.039368 0l0 22.881897z" fill-rule="evenodd"/><path fill="#000000" fill-opacity="0.0" d="m494.9146 408.13516l0 0c0 4.9510193 20.376343 8.964569 45.51184 8.964569c25.135437 0 45.51178 -4.01355 45.51178 -8.964569l0 53.787415c0 4.950989 -20.376343 8.964569 -45.51178 8.964569c-25.135498 0 -45.51184 -4.0135803 -45.51184 -8.964569z" fill-rule="evenodd"/><path fill="#000000" fill-opacity="0.0" d="m494.9146 408.13516l0 0c0 -4.950989 20.376343 -8.964539 45.51184 -8.964539c25.135437 0 45.51178 4.01355 45.51178 8.964539l0 0c0 4.9510193 -20.376343 8.964569 -45.51178 8.964569c-25.135498 0 -45.51184 -4.01355 -45.51184 -8.964569z" fill-rule="evenodd"/><path fill="#000000" fill-opacity="0.0" d="m585.93823 408.13516l0 0c0 4.9510193 -20.376343 8.964569 -45.51178 8.964569c-25.135498 0 -45.51184 -4.01355 -45.51184 -8.964569l0 0c0 -4.950989 20.376343 -8.964539 45.51184 -8.964539c25.135437 0 45.51178 4.01355 45.51178 8.964539l0 53.787415c0 4.950989 -20.376343 8.964569 -45.51178 8.964569c-25.135498 0 -45.51184 -4.0135803 -45.51184 -8.964569l0 -53.787415" fill-rule="evenodd"/><path fill="#ffffff" fill-opacity="0.4" d="m494.9146 408.13516l0 0c0 -4.950989 20.376343 -8.964539 45.51184 -8.964539c25.135437 0 45.51178 4.01355 45.51178 8.964539l0 0c0 4.9510193 -20.376343 8.964569 -45.51178 8.964569c-25.135498 0 -45.51184 -4.01355 -45.51184 -8.964569z" fill-rule="evenodd"/><path stroke="#666666" stroke-width="1.0" stroke-linejoin="round" stroke-linecap="butt" d="m585.93823 408.13516l0 0c0 4.9510193 -20.376343 8.964569 -45.51178 8.964569c-25.135498 0 -45.51184 -4.01355 -45.51184 -8.964569l0 0c0 -4.950989 20.376343 -8.964539 45.51184 -8.964539c25.135437 0 45.51178 4.01355 45.51178 8.964539l0 53.787415c0 4.950989 -20.376343 8.964569 -45.51178 8.964569c-25.135498 0 -45.51184 -4.0135803 -45.51184 -8.964569l0 -53.787415" fill-rule="evenodd"/><path fill="#434343" d="m510.09048 445.37115l0 -11.453125l4.3281555 0q1.140625 0 1.734375 0.109375q0.84375 0.140625 1.40625 0.53125q0.578125 0.390625 0.921875 1.109375q0.359375 0.703125 0.359375 1.5625q0 1.453125 -0.9375 2.46875q-0.921875 1.015625 -3.359375 1.015625l-2.9375305 0l0 4.65625l-1.515625 0zm1.515625 -6.015625l2.9687805 0q1.46875 0 2.078125 -0.546875q0.625 -0.546875 0.625 -1.53125q0 -0.71875 -0.375 -1.234375q-0.359375 -0.515625 -0.953125 -0.671875q-0.375 -0.109375 -1.40625 -0.109375l-2.9375305 0l0 4.09375zm8.4531555 1.859375q0 -2.296875 1.28125 -3.40625q1.078125 -0.921875 2.609375 -0.921875q1.71875 0 2.796875 1.125q1.09375 1.109375 1.09375 3.09375q0 1.59375 -0.484375 2.515625q-0.484375 0.921875 -1.40625 1.4375q-0.90625 0.5 -2.0 0.5q-1.734375 0 -2.8125 -1.109375q-1.078125 -1.125 -1.078125 -3.234375zm1.453125 0q0 1.59375 0.6875 2.390625q0.703125 0.796875 1.75 0.796875q1.046875 0 1.734375 -0.796875q0.703125 -0.796875 0.703125 -2.4375q0 -1.53125 -0.703125 -2.328125q-0.6875 -0.796875 -1.734375 -0.796875q-1.046875 0 -1.75 0.796875q-0.6875 0.78125 -0.6875 2.375zm7.4140625 1.671875l1.390625 -0.21875q0.109375 0.84375 0.640625 1.296875q0.546875 0.4375 1.5 0.4375q0.96875 0 1.4375 -0.390625q0.46875 -0.40625 0.46875 -0.9375q0 -0.46875 -0.40625 -0.75q-0.296875 -0.1875 -1.4375 -0.46875q-1.546875 -0.390625 -2.15625 -0.671875q-0.59375 -0.296875 -0.90625 -0.796875q-0.296875 -0.5 -0.296875 -1.109375q0 -0.5625 0.25 -1.03125q0.25 -0.46875 0.6875 -0.78125q0.328125 -0.25 0.890625 -0.40625q0.578125 -0.171875 1.21875 -0.171875q0.984375 0 1.71875 0.28125q0.734375 0.28125 1.078125 0.765625q0.359375 0.46875 0.5 1.28125l-1.375 0.1875q-0.09375 -0.640625 -0.546875 -1.0q-0.453125 -0.359375 -1.265625 -0.359375q-0.96875 0 -1.390625 0.328125q-0.40625 0.3125 -0.40625 0.734375q0 0.28125 0.171875 0.5q0.171875 0.21875 0.53125 0.375q0.21875 0.078125 1.25 0.359375q1.484375 0.390625 2.078125 0.65625q0.59375 0.25 0.921875 0.734375q0.34375 0.484375 0.34375 1.203125q0 0.703125 -0.421875 1.328125q-0.40625 0.609375 -1.1875 0.953125q-0.765625 0.34375 -1.734375 0.34375q-1.625 0 -2.46875 -0.671875q-0.84375 -0.671875 -1.078125 -2.0zm11.625 1.21875l0.203125 1.25q-0.59375 0.125 -1.0625 0.125q-0.765625 0 -1.1875 -0.234375q-0.421875 -0.25 -0.59375 -0.640625q-0.171875 -0.40625 -0.171875 -1.671875l0 -4.765625l-1.03125 0l0 -1.09375l1.03125 0l0 -2.0625l1.40625 -0.84375l0 2.90625l1.40625 0l0 1.09375l-1.40625 0l0 4.84375q0 0.609375 0.0625 0.78125q0.078125 0.171875 0.25 0.28125q0.171875 0.09375 0.484375 0.09375q0.234375 0 0.609375 -0.0625zm1.1171875 1.953125l1.375 0.203125q0.078125 0.640625 0.46875 0.921875q0.53125 0.390625 1.4375 0.390625q0.96875 0 1.5 -0.390625q0.53125 -0.390625 0.71875 -1.09375q0.109375 -0.421875 0.109375 -1.8125q-0.921875 1.09375 -2.296875 1.09375q-1.71875 0 -2.65625 -1.234375q-0.9375 -1.234375 -0.9375 -2.96875q0 -1.1875 0.421875 -2.1875q0.4375 -1.0 1.25 -1.546875q0.828125 -0.546875 1.921875 -0.546875q1.46875 0 2.421875 1.1875l0 -1.0l1.296875 0l0 7.171875q0 1.9375 -0.390625 2.75q-0.390625 0.8125 -1.25 1.28125q-0.859375 0.46875 -2.109375 0.46875q-1.484375 0 -2.40625 -0.671875q-0.90625 -0.671875 -0.875 -2.015625zm1.171875 -4.984375q0 1.625 0.640625 2.375q0.65625 0.75 1.625 0.75q0.96875 0 1.625 -0.734375q0.65625 -0.75 0.65625 -2.34375q0 -1.53125 -0.671875 -2.296875q-0.671875 -0.78125 -1.625 -0.78125q-0.9375 0 -1.59375 0.765625q-0.65625 0.765625 -0.65625 2.265625zm7.9765625 4.296875l0 -8.296875l1.265625 0l0 1.25q0.484375 -0.875 0.890625 -1.15625q0.40625 -0.28125 0.90625 -0.28125q0.703125 0 1.4375 0.453125l-0.484375 1.296875q-0.515625 -0.296875 -1.03125 -0.296875q-0.453125 0 -0.828125 0.28125q-0.359375 0.265625 -0.515625 0.765625q-0.234375 0.75 -0.234375 1.640625l0 4.34375l-1.40625 0zm11.015625 -2.671875l1.453125 0.171875q-0.34375 1.28125 -1.28125 1.984375q-0.921875 0.703125 -2.359375 0.703125q-1.828125 0 -2.890625 -1.125q-1.0625 -1.125 -1.0625 -3.140625q0 -2.09375 1.078125 -3.25q1.078125 -1.15625 2.796875 -1.15625q1.65625 0 2.703125 1.140625q1.0625 1.125 1.0625 3.171875q0 0.125 0 0.375l-6.1875 0q0.078125 1.375 0.765625 2.109375q0.703125 0.71875 1.734375 0.71875q0.78125 0 1.328125 -0.40625q0.546875 -0.40625 0.859375 -1.296875zm-4.609375 -2.28125l4.625 0q-0.09375 -1.046875 -0.53125 -1.5625q-0.671875 -0.8125 -1.734375 -0.8125q-0.96875 0 -1.640625 0.65625q-0.65625 0.640625 -0.71875 1.71875zm7.2734375 2.46875l1.390625 -0.21875q0.109375 0.84375 0.640625 1.296875q0.546875 0.4375 1.5 0.4375q0.96875 0 1.4375 -0.390625q0.46875 -0.40625 0.46875 -0.9375q0 -0.46875 -0.40625 -0.75q-0.296875 -0.1875 -1.4375 -0.46875q-1.546875 -0.390625 -2.15625 -0.671875q-0.59375 -0.296875 -0.90625 -0.796875q-0.296875 -0.5 -0.296875 -1.109375q0 -0.5625 0.25 -1.03125q0.25 -0.46875 0.6875 -0.78125q0.328125 -0.25 0.890625 -0.40625q0.578125 -0.171875 1.21875 -0.171875q0.984375 0 1.71875 0.28125q0.734375 0.28125 1.078125 0.765625q0.359375 0.46875 0.5 1.28125l-1.375 0.1875q-0.09375 -0.640625 -0.546875 -1.0q-0.453125 -0.359375 -1.265625 -0.359375q-0.96875 0 -1.390625 0.328125q-0.40625 0.3125 -0.40625 0.734375q0 0.28125 0.171875 0.5q0.171875 0.21875 0.53125 0.375q0.21875 0.078125 1.25 0.359375q1.484375 0.390625 2.078125 0.65625q0.59375 0.25 0.921875 0.734375q0.34375 0.484375 0.34375 1.203125q0 0.703125 -0.421875 1.328125q-0.40625 0.609375 -1.1875 0.953125q-0.765625 0.34375 -1.734375 0.34375q-1.625 0 -2.46875 -0.671875q-0.84375 -0.671875 -1.078125 -2.0z" fill-rule="nonzero"/><path fill="#ffffff" d="m514.9005 231.28871l-78.43176 0c8.66333 0 15.68634 -13.694672 15.68634 -30.587921c0 -16.89325 -7.0230103 -30.587936 -15.68634 -30.587936l78.43176 0l0 0c8.66333 0 15.68634 13.694687 15.68634 30.587936c0 16.89325 -7.0230103 30.587921 -15.68634 30.587921z" fill-rule="evenodd"/><path stroke="#595959" stroke-width="1.0" stroke-linejoin="round" stroke-linecap="butt" d="m514.9005 231.28871l-78.43176 0c8.66333 0 15.68634 -13.694672 15.68634 -30.587921c0 -16.89325 -7.0230103 -30.587936 -15.68634 -30.587936l78.43176 0l0 0c8.66333 0 15.68634 13.694687 15.68634 30.587936c0 16.89325 -7.0230103 30.587921 -15.68634 30.587921z" fill-rule="evenodd"/><path fill="#000000" fill-opacity="0.0" d="m445.90778 178.84776l137.82678 0l0 43.08661l-137.82678 0z" fill-rule="evenodd"/><path fill="#434343" d="m473.40778 199.52026l1.4375 -0.125q0.09375 0.859375 0.46875 1.421875q0.375 0.546875 1.15625 0.890625q0.78125 0.328125 1.75 0.328125q0.875 0 1.53125 -0.25q0.671875 -0.265625 0.984375 -0.703125q0.328125 -0.453125 0.328125 -0.984375q0 -0.546875 -0.3125 -0.9375q-0.3125 -0.40625 -1.03125 -0.6875q-0.453125 -0.171875 -2.03125 -0.546875q-1.578125 -0.390625 -2.21875 -0.71875q-0.8125 -0.4375 -1.21875 -1.0625q-0.40625 -0.640625 -0.40625 -1.4375q0 -0.859375 0.484375 -1.609375q0.5 -0.765625 1.4375 -1.15625q0.953125 -0.390625 2.109375 -0.390625q1.28125 0 2.25 0.421875q0.96875 0.40625 1.484375 1.203125q0.53125 0.796875 0.578125 1.796875l-1.453125 0.109375q-0.125 -1.078125 -0.796875 -1.625q-0.671875 -0.5625 -2.0 -0.5625q-1.375 0 -2.0 0.5q-0.625 0.5 -0.625 1.21875q0 0.609375 0.4375 1.015625q0.4375 0.390625 2.28125 0.8125q1.859375 0.421875 2.546875 0.734375q1.0 0.453125 1.46875 1.171875q0.484375 0.703125 0.484375 1.625q0 0.90625 -0.53125 1.71875q-0.515625 0.8125 -1.5 1.265625q-0.984375 0.453125 -2.203125 0.453125q-1.5625 0 -2.609375 -0.453125q-1.046875 -0.46875 -1.65625 -1.375q-0.59375 -0.90625 -0.625 -2.0625zm11.015625 3.6875l0 -8.296875l1.265625 0l0 1.171875q0.90625 -1.359375 2.640625 -1.359375q0.75 0 1.375 0.265625q0.625 0.265625 0.9375 0.703125q0.3125 0.4375 0.4375 1.046875q0.078125 0.390625 0.078125 1.359375l0 5.109375l-1.40625 0l0 -5.046875q0 -0.859375 -0.171875 -1.28125q-0.15625 -0.4375 -0.578125 -0.6875q-0.40625 -0.25 -0.96875 -0.25q-0.90625 0 -1.5625 0.578125q-0.640625 0.5625 -0.640625 2.15625l0 4.53125l-1.40625 0zm14.3046875 -1.03125q-0.78125 0.671875 -1.5 0.953125q-0.71875 0.265625 -1.546875 0.265625q-1.375 0 -2.109375 -0.671875q-0.734375 -0.671875 -0.734375 -1.703125q0 -0.609375 0.28125 -1.109375q0.28125 -0.515625 0.71875 -0.8125q0.453125 -0.3125 1.015625 -0.46875q0.421875 -0.109375 1.25 -0.203125q1.703125 -0.203125 2.515625 -0.484375q0 -0.296875 0 -0.375q0 -0.859375 -0.390625 -1.203125q-0.546875 -0.484375 -1.609375 -0.484375q-0.984375 0 -1.46875 0.359375q-0.46875 0.34375 -0.6875 1.21875l-1.375 -0.1875q0.1875 -0.875 0.609375 -1.421875q0.4375 -0.546875 1.25 -0.828125q0.8125 -0.296875 1.875 -0.296875q1.0625 0 1.71875 0.25q0.671875 0.25 0.984375 0.625q0.3125 0.375 0.4375 0.953125q0.078125 0.359375 0.078125 1.296875l0 1.875q0 1.96875 0.078125 2.484375q0.09375 0.515625 0.359375 1.0l-1.46875 0q-0.21875 -0.4375 -0.28125 -1.03125zm-0.109375 -3.140625q-0.765625 0.3125 -2.296875 0.53125q-0.875 0.125 -1.234375 0.28125q-0.359375 0.15625 -0.5625 0.46875q-0.1875 0.296875 -0.1875 0.65625q0 0.5625 0.421875 0.9375q0.4375 0.375 1.25 0.375q0.8125 0 1.4375 -0.34375q0.640625 -0.359375 0.9375 -0.984375q0.234375 -0.46875 0.234375 -1.40625l0 -0.515625zm3.6015625 7.359375l0 -11.484375l1.28125 0l0 1.078125q0.453125 -0.640625 1.015625 -0.953125q0.578125 -0.3125 1.390625 -0.3125q1.0625 0 1.875 0.546875q0.8125 0.546875 1.21875 1.546875q0.421875 0.984375 0.421875 2.171875q0 1.28125 -0.46875 2.296875q-0.453125 1.015625 -1.328125 1.5625q-0.859375 0.546875 -1.828125 0.546875q-0.703125 0 -1.265625 -0.296875q-0.546875 -0.296875 -0.90625 -0.75l0 4.046875l-1.40625 0zm1.265625 -7.296875q0 1.609375 0.640625 2.375q0.65625 0.765625 1.578125 0.765625q0.9375 0 1.609375 -0.796875q0.671875 -0.796875 0.671875 -2.453125q0 -1.59375 -0.65625 -2.375q-0.65625 -0.796875 -1.5625 -0.796875q-0.890625 0 -1.59375 0.84375q-0.6875 0.84375 -0.6875 2.4375z" fill-rule="nonzero"/><path fill="#ffffff" d="m742.90155 186.1181l-78.43176 0c8.663391 0 15.686401 -13.694672 15.686401 -30.587921c0 -16.89325 -7.0230103 -30.587929 -15.686401 -30.587929l78.43176 0l0 0c8.66333 0 15.686401 13.694679 15.686401 30.587929c0 16.89325 -7.0230713 30.587921 -15.686401 30.587921z" fill-rule="evenodd"/><path stroke="#595959" stroke-width="1.0" stroke-linejoin="round" stroke-linecap="butt" d="m742.90155 186.1181l-78.43176 0c8.663391 0 15.686401 -13.694672 15.686401 -30.587921c0 -16.89325 -7.0230103 -30.587929 -15.686401 -30.587929l78.43176 0l0 0c8.66333 0 15.686401 13.694679 15.686401 30.587929c0 16.89325 -7.0230713 30.587921 -15.686401 30.587921z" fill-rule="evenodd"/><path fill="#000000" fill-opacity="0.0" d="m673.9089 133.67715l137.82678 0l0 43.086624l-137.82678 0z" fill-rule="evenodd"/><path fill="#434343" d="m688.07294 154.34966l1.4375 -0.125q0.09375 0.859375 0.46875 1.421875q0.375 0.546875 1.15625 0.890625q0.78125 0.328125 1.75 0.328125q0.875 0 1.53125 -0.25q0.671875 -0.265625 0.984375 -0.703125q0.328125 -0.453125 0.328125 -0.984375q0 -0.546875 -0.3125 -0.9375q-0.3125 -0.40625 -1.03125 -0.6875q-0.453125 -0.171875 -2.03125 -0.546875q-1.578125 -0.390625 -2.21875 -0.71875q-0.8125 -0.4375 -1.21875 -1.0625q-0.40625 -0.640625 -0.40625 -1.4375q0 -0.859375 0.484375 -1.609375q0.5 -0.765625 1.4375 -1.15625q0.953125 -0.390625 2.109375 -0.390625q1.28125 0 2.25 0.421875q0.96875 0.40625 1.484375 1.203125q0.53125 0.796875 0.578125 1.796875l-1.453125 0.109375q-0.125 -1.078125 -0.796875 -1.625q-0.671875 -0.5625 -2.0 -0.5625q-1.375 0 -2.0 0.5q-0.625 0.5 -0.625 1.21875q0 0.609375 0.4375 1.015625q0.4375 0.390625 2.28125 0.8125q1.859375 0.421875 2.546875 0.734375q1.0 0.453125 1.46875 1.171875q0.484375 0.703125 0.484375 1.625q0 0.90625 -0.53125 1.71875q-0.515625 0.8125 -1.5 1.265625q-0.984375 0.453125 -2.203125 0.453125q-1.5625 0 -2.609375 -0.453125q-1.046875 -0.46875 -1.65625 -1.375q-0.59375 -0.90625 -0.625 -2.0625zm11.015625 3.6875l0 -8.296875l1.265625 0l0 1.171875q0.90625 -1.359375 2.640625 -1.359375q0.75 0 1.375 0.265625q0.625 0.265625 0.9375 0.703125q0.3125 0.4375 0.4375 1.046875q0.078125 0.390625 0.078125 1.359375l0 5.109375l-1.40625 0l0 -5.046875q0 -0.859375 -0.171875 -1.28125q-0.15625 -0.4375 -0.578125 -0.6875q-0.40625 -0.25 -0.96875 -0.25q-0.90625 0 -1.5625 0.578125q-0.640625 0.5625 -0.640625 2.15625l0 4.53125l-1.40625 0zm14.3046875 -1.03125q-0.78125 0.671875 -1.5 0.953125q-0.71875 0.265625 -1.546875 0.265625q-1.375 0 -2.109375 -0.671875q-0.734375 -0.671875 -0.734375 -1.703125q0 -0.609375 0.28125 -1.109375q0.28125 -0.515625 0.71875 -0.8125q0.453125 -0.3125 1.015625 -0.46875q0.421875 -0.109375 1.25 -0.203125q1.703125 -0.203125 2.515625 -0.484375q0 -0.296875 0 -0.375q0 -0.859375 -0.390625 -1.203125q-0.546875 -0.484375 -1.609375 -0.484375q-0.984375 0 -1.46875 0.359375q-0.46875 0.34375 -0.6875 1.21875l-1.375 -0.1875q0.1875 -0.875 0.609375 -1.421875q0.4375 -0.546875 1.25 -0.828125q0.8125 -0.296875 1.875 -0.296875q1.0625 0 1.71875 0.25q0.671875 0.25 0.984375 0.625q0.3125 0.375 0.4375 0.953125q0.078125 0.359375 0.078125 1.296875l0 1.875q0 1.96875 0.078125 2.484375q0.09375 0.515625 0.359375 1.0l-1.46875 0q-0.21875 -0.4375 -0.28125 -1.03125zm-0.109375 -3.140625q-0.765625 0.3125 -2.296875 0.53125q-0.875 0.125 -1.234375 0.28125q-0.359375 0.15625 -0.5625 0.46875q-0.1875 0.296875 -0.1875 0.65625q0 0.5625 0.421875 0.9375q0.4375 0.375 1.25 0.375q0.8125 0 1.4375 -0.34375q0.640625 -0.359375 0.9375 -0.984375q0.234375 -0.46875 0.234375 -1.40625l0 -0.515625zm3.6015625 7.359375l0 -11.484375l1.28125 0l0 1.078125q0.453125 -0.640625 1.015625 -0.953125q0.578125 -0.3125 1.390625 -0.3125q1.0625 0 1.875 0.546875q0.8125 0.546875 1.21875 1.546875q0.421875 0.984375 0.421875 2.171875q0 1.28125 -0.46875 2.296875q-0.453125 1.015625 -1.328125 1.5625q-0.859375 0.546875 -1.828125 0.546875q-0.703125 0 -1.265625 -0.296875q-0.546875 -0.296875 -0.90625 -0.75l0 4.046875l-1.40625 0zm1.265625 -7.296875q0 1.609375 0.640625 2.375q0.65625 0.765625 1.578125 0.765625q0.9375 0 1.609375 -0.796875q0.671875 -0.796875 0.671875 -2.453125q0 -1.59375 -0.65625 -2.375q-0.65625 -0.796875 -1.5625 -0.796875q-0.890625 0 -1.59375 0.84375q-0.6875 0.84375 -0.6875 2.4375z" fill-rule="nonzero"/><path fill="#000000" fill-opacity="0.0" d="m291.19913 134.5643c38.677155 0 58.015747 16.456696 77.35434 32.913376c19.338562 16.456696 38.677155 32.91339 77.35431 32.91339" fill-rule="evenodd"/><path stroke="#595959" stroke-width="1.0" stroke-linejoin="round" stroke-linecap="butt" d="m291.19913 134.5643c38.677155 0 58.015717 16.45668 77.35431 32.913376c9.669281 8.228363 19.338593 16.45671 31.425201 22.62796c6.0433044 3.0856323 12.6909485 5.6569977 20.245087 7.4569397c3.777069 0.89997864 7.780731 1.6071014 12.048828 2.0892181c2.1340332 0.24108887 4.334198 0.42590332 6.6051636 0.55044556c1.135437 0.06227112 2.2886658 0.10948181 3.4601135 0.14111328l0.14312744 0.0033874512" fill-rule="evenodd"/><path fill="#595959" stroke="#595959" stroke-width="1.0" stroke-linecap="butt" d="m442.48096 200.34674l-1.1390381 1.1099396l3.104065 -1.0845184l-3.0749512 -1.1644592z" fill-rule="evenodd"/><path fill="#000000" fill-opacity="0.0" d="m537.24744 199.8189c34.165344 0 51.248047 -11.149612 68.33069 -22.29921c17.082703 -11.149612 34.165405 -22.299225 68.33075 -22.299225" fill-rule="evenodd"/><path stroke="#595959" stroke-width="1.0" stroke-linejoin="round" stroke-linecap="butt" d="m537.24744 199.8189c34.165405 0 51.248047 -11.149597 68.33075 -22.29921c8.541321 -5.5747986 17.082642 -11.149612 27.759338 -15.330719c5.338318 -2.0905457 11.21051 -3.832672 17.883423 -5.05217c3.3364868 -0.6097412 6.873108 -1.0888214 10.643311 -1.4154663c1.8850708 -0.16333008 3.8285522 -0.2885437 5.834656 -0.3729248c0.5015259 -0.021102905 1.006897 -0.039642334 1.5162964 -0.055603027c0.2546997 -0.007965088 0.510376 -0.015289307 0.76708984 -0.021972656l0.49969482 -0.011657715" fill-rule="evenodd"/><path fill="#595959" stroke="#595959" stroke-width="1.0" stroke-linecap="butt" d="m670.482 155.25917l-1.1118164 1.137207l3.0769043 -1.1594086l-3.102295 -1.0896149z" fill-rule="evenodd"/><path fill="#000000" fill-opacity="0.0" d="m757.44617 157.24779c22.417358 0 33.626038 -5.7322845 44.834656 -11.464569c11.208679 -5.7322845 22.417358 -11.464569 44.834656 -11.464569" fill-rule="evenodd"/><path stroke="#595959" stroke-width="1.0" stroke-linejoin="round" stroke-linecap="butt" d="m757.44617 157.24779c22.417358 0 33.626038 -5.7322845 44.834656 -11.464569c5.60437 -2.8661346 11.208679 -5.7322845 18.214111 -7.881897c3.5026855 -1.0747986 7.355652 -1.970459 11.73407 -2.5974274c2.189148 -0.31349182 4.5097046 -0.5597992 6.9835205 -0.7277374c1.2368774 -0.083969116 2.512024 -0.14834595 3.828308 -0.19172668l0.6478882 -0.018615723" fill-rule="evenodd"/><path fill="#595959" stroke="#595959" stroke-width="1.0" stroke-linecap="butt" d="m843.6887 134.36581l-1.1090088 1.1399536l3.0740356 -1.1669922l-3.1049805 -1.081955z" fill-rule="evenodd"/><path fill="#000000" fill-opacity="0.0" d="m18.080027 123.401184l0 0c-1.0683403 -7.95726 2.4392319 -15.834457 9.034325 -20.289017c6.5950947 -4.4545593 15.121073 -4.7052383 21.960047 -0.64567566l0 0c2.422573 -4.6266785 6.8565903 -7.821083 11.960846 -8.616966c5.104252 -0.79587555 10.27924 0.90023804 13.959606 4.5753174l0 0c2.0637283 -4.194847 6.1158752 -7.0132446 10.718544 -7.4550858c4.602669 -0.44184113 9.104469 1.5554123 11.907921 5.2830276l0 0c3.7284088 -4.4465256 9.660416 -6.318695 15.229187 -4.8064194c5.568779 1.5122833 9.774132 6.137398 10.796371 11.874031l0 0c4.5679398 1.262825 8.372948 4.473114 10.431908 8.8014145c2.05896 4.328308 2.1699219 9.350037 0.30419922 13.767731l0 0c4.4980927 5.933441 5.550308 13.839691 2.763977 20.768265c-2.7863312 6.9285736 -8.992569 11.8385315 -16.302689 12.897583c-0.05152893 6.502716 -3.5702362 12.469528 -9.19986 15.600571c-5.629631 3.1310425 -12.491089 2.937378 -17.939682 -0.5063324l0 0c-2.3208084 7.7881317 -8.853111 13.518555 -16.774712 14.71553c-7.9216003 1.1969757 -15.812401 -2.3540802 -20.263275 -9.118988l0 0c-5.455841 3.3344421 -12.002399 4.294998 -18.162899 2.6649628c-6.1604996 -1.6300201 -11.416014 -5.713333 -14.581001 -11.328781l0 0c-5.575186 0.66122437 -10.96562 -2.2663574 -13.49605 -7.3298035c-2.530429 -5.063446 -1.6621857 -11.18486 2.1738243 -15.326233l0 0c-4.9732103 -2.9666748 -7.510842 -8.853546 -6.2896194 -14.590836c1.2212219 -5.7372894 5.9245644 -10.024918 11.657419 -10.627045z" fill-rule="evenodd"/><path fill="#000000" fill-opacity="0.0" d="m12.602022 148.92575l0 0c2.3468723 1.3999786 5.0580616 2.0350494 7.7695427 1.819931m3.5514603 20.836609c1.1660385 -0.13830566 2.3089771 -0.4311676 3.3993397 -0.8710327m29.34293 9.534485c-0.82011414 -1.2464905 -1.5067558 -2.578476 -2.0482254 -3.9732666m39.087635 -1.6235046l0 0c0.4231186 -1.4198914 0.697258 -2.881256 0.81785583 -4.359741m26.320656 -10.733948c0.054855347 -6.9231567 -3.8248749 -13.262054 -9.972725 -16.29396m23.5113 -17.371162c-0.9956207 2.35746 -2.5155487 4.448738 -4.440613 6.1098404m-6.294548 -28.679604l0 0c0.16963959 0.95199585 0.24814606 1.9182968 0.23444366 2.8855133m-26.259567 -9.952835l0 0c-0.9300537 1.1091843 -1.6962967 2.3486862 -2.2748642 3.6799088m-20.351807 -1.5083389l0 0c-0.49564362 1.0074692 -0.8657532 2.0735397 -1.1018066 3.1736603m-24.81903 0.8680725l0 0c1.4471207 0.85900116 2.7859077 1.8929062 3.986946 3.0789871m-34.98092 17.85582l0 0c0.1472435 1.0967178 0.37989807 2.1799088 0.6957855 3.2394485" fill-rule="evenodd"/><path stroke="#434343" stroke-width="1.0" stroke-linejoin="round" stroke-linecap="butt" d="m18.080027 123.401184l0 0c-1.0683403 -7.95726 2.4392319 -15.834457 9.034325 -20.289017c6.5950947 -4.4545593 15.121073 -4.7052383 21.960047 -0.64567566l0 0c2.422573 -4.6266785 6.8565903 -7.821083 11.960846 -8.616966c5.104252 -0.79587555 10.27924 0.90023804 13.959606 4.5753174l0 0c2.0637283 -4.194847 6.1158752 -7.0132446 10.718544 -7.4550858c4.602669 -0.44184113 9.104469 1.5554123 11.907921 5.2830276l0 0c3.7284088 -4.4465256 9.660416 -6.318695 15.229187 -4.8064194c5.568779 1.5122833 9.774132 6.137398 10.796371 11.874031l0 0c4.5679398 1.262825 8.372948 4.473114 10.431908 8.8014145c2.05896 4.328308 2.1699219 9.350037 0.30419922 13.767731l0 0c4.4980927 5.933441 5.550308 13.839691 2.763977 20.768265c-2.7863312 6.9285736 -8.992569 11.8385315 -16.302689 12.897583c-0.05152893 6.502716 -3.5702362 12.469528 -9.19986 15.600571c-5.629631 3.1310425 -12.491089 2.937378 -17.939682 -0.5063324l0 0c-2.3208084 7.7881317 -8.853111 13.518555 -16.774712 14.71553c-7.9216003 1.1969757 -15.812401 -2.3540802 -20.263275 -9.118988l0 0c-5.455841 3.3344421 -12.002399 4.294998 -18.162899 2.6649628c-6.1604996 -1.6300201 -11.416014 -5.713333 -14.581001 -11.328781l0 0c-5.575186 0.66122437 -10.96562 -2.2663574 -13.49605 -7.3298035c-2.530429 -5.063446 -1.6621857 -11.18486 2.1738243 -15.326233l0 0c-4.9732103 -2.9666748 -7.510842 -8.853546 -6.2896194 -14.590836c1.2212219 -5.7372894 5.9245644 -10.024918 11.657419 -10.627045z" fill-rule="evenodd"/><path stroke="#434343" stroke-width="1.0" stroke-linejoin="round" stroke-linecap="butt" d="m12.602022 148.92575l0 0c2.3468723 1.3999786 5.0580616 2.0350494 7.7695427 1.819931m3.5514603 20.836609c1.1660385 -0.13830566 2.3089771 -0.4311676 3.3993397 -0.8710327m29.34293 9.534485c-0.82011414 -1.2464905 -1.5067558 -2.578476 -2.0482254 -3.9732666m39.087635 -1.6235046l0 0c0.4231186 -1.4198914 0.697258 -2.881256 0.81785583 -4.359741m26.320656 -10.733948c0.054855347 -6.9231567 -3.8248749 -13.262054 -9.972725 -16.29396m23.5113 -17.371162c-0.9956207 2.35746 -2.5155487 4.448738 -4.440613 6.1098404m-6.294548 -28.679604l0 0c0.16963959 0.95199585 0.24814606 1.9182968 0.23444366 2.8855133m-26.259567 -9.952835l0 0c-0.9300537 1.1091843 -1.6962967 2.3486862 -2.2748642 3.6799088m-20.351807 -1.5083389l0 0c-0.49564362 1.0074692 -0.8657532 2.0735397 -1.1018066 3.1736603m-24.81903 0.8680725l0 0c1.4471207 0.85900116 2.7859077 1.8929062 3.986946 3.0789871m-34.98092 17.85582l0 0c0.1472435 1.0967178 0.37989807 2.1799088 0.6957855 3.2394485" fill-rule="evenodd"/><path fill="#434343" d="m43.029205 139.79738l1.4375 -0.125q0.09375 0.859375 0.46875 1.421875q0.375 0.546875 1.15625 0.890625q0.78125 0.328125 1.75 0.328125q0.875 0 1.53125 -0.25q0.671875 -0.265625 0.984375 -0.703125q0.328125 -0.453125 0.328125 -0.984375q0 -0.546875 -0.3125 -0.9375q-0.3125 -0.40625 -1.03125 -0.6875q-0.453125 -0.171875 -2.03125 -0.546875q-1.578125 -0.390625 -2.21875 -0.71875q-0.8125 -0.4375 -1.21875 -1.0625q-0.40625 -0.640625 -0.40625 -1.4375q0 -0.859375 0.484375 -1.609375q0.5 -0.765625 1.4375 -1.15625q0.953125 -0.390625 2.109375 -0.390625q1.28125 0 2.25 0.421875q0.96875 0.40625 1.484375 1.203125q0.53125 0.796875 0.578125 1.796875l-1.453125 0.109375q-0.125 -1.078125 -0.796875 -1.625q-0.671875 -0.5625 -2.0 -0.5625q-1.375 0 -2.0 0.5q-0.625 0.5 -0.625 1.21875q0 0.609375 0.4375 1.015625q0.4375 0.390625 2.28125 0.8125q1.859375 0.421875 2.546875 0.734375q1.0 0.453125 1.46875 1.171875q0.484375 0.703125 0.484375 1.625q0 0.90625 -0.53125 1.71875q-0.515625 0.8125 -1.5 1.265625q-0.984375 0.453125 -2.203125 0.453125q-1.5625 0 -2.609375 -0.453125q-1.046875 -0.46875 -1.65625 -1.375q-0.59375 -0.90625 -0.625 -2.0625zm10.484375 -0.46875q0 -2.296875 1.28125 -3.40625q1.078125 -0.921875 2.609375 -0.921875q1.71875 0 2.796875 1.125q1.09375 1.109375 1.09375 3.09375q0 1.59375 -0.484375 2.515625q-0.484375 0.921875 -1.40625 1.4375q-0.90625 0.5 -2.0 0.5q-1.734375 0 -2.8125 -1.109375q-1.078125 -1.125 -1.078125 -3.234375zm1.453125 0q0 1.59375 0.6875 2.390625q0.703125 0.796875 1.75 0.796875q1.046875 0 1.734375 -0.796875q0.703125 -0.796875 0.703125 -2.4375q0 -1.53125 -0.703125 -2.328125q-0.6875 -0.796875 -1.734375 -0.796875q-1.046875 0 -1.75 0.796875q-0.6875 0.78125 -0.6875 2.375zm13.4140625 4.15625l0 -1.21875q-0.96875 1.40625 -2.640625 1.40625q-0.734375 0 -1.375 -0.28125q-0.625 -0.28125 -0.9375 -0.703125q-0.3125 -0.4375 -0.4375 -1.046875q-0.078125 -0.421875 -0.078125 -1.3125l0 -5.140625l1.40625 0l0 4.59375q0 1.109375 0.078125 1.484375q0.140625 0.5625 0.5625 0.875q0.4375 0.3125 1.0625 0.3125q0.640625 0 1.1875 -0.3125q0.5625 -0.328125 0.78125 -0.890625q0.234375 -0.5625 0.234375 -1.625l0 -4.4375l1.40625 0l0 8.296875l-1.25 0zm3.4453125 0l0 -8.296875l1.265625 0l0 1.25q0.484375 -0.875 0.890625 -1.15625q0.40625 -0.28125 0.90625 -0.28125q0.703125 0 1.4375 0.453125l-0.484375 1.296875q-0.515625 -0.296875 -1.03125 -0.296875q-0.453125 0 -0.828125 0.28125q-0.359375 0.265625 -0.515625 0.765625q-0.234375 0.75 -0.234375 1.640625l0 4.34375l-1.40625 0zm10.75 -3.046875l1.390625 0.1875q-0.234375 1.421875 -1.171875 2.234375q-0.921875 0.8125 -2.28125 0.8125q-1.703125 0 -2.75 -1.109375q-1.03125 -1.125 -1.03125 -3.203125q0 -1.34375 0.4375 -2.34375q0.453125 -1.015625 1.359375 -1.515625q0.921875 -0.5 1.984375 -0.5q1.359375 0 2.21875 0.6875q0.859375 0.671875 1.09375 1.9375l-1.359375 0.203125q-0.203125 -0.828125 -0.703125 -1.25q-0.484375 -0.421875 -1.1875 -0.421875q-1.0625 0 -1.734375 0.765625q-0.65625 0.75 -0.65625 2.40625q0 1.671875 0.640625 2.4375q0.640625 0.75 1.671875 0.75q0.828125 0 1.375 -0.5q0.5625 -0.515625 0.703125 -1.578125zm8.265625 0.375l1.453125 0.171875q-0.34375 1.28125 -1.28125 1.984375q-0.921875 0.703125 -2.359375 0.703125q-1.828125 0 -2.890625 -1.125q-1.0625 -1.125 -1.0625 -3.140625q0 -2.09375 1.078125 -3.25q1.078125 -1.15625 2.796875 -1.15625q1.65625 0 2.703125 1.140625q1.0625 1.125 1.0625 3.171875q0 0.125 0 0.375l-6.1875 0q0.078125 1.375 0.765625 2.109375q0.703125 0.71875 1.734375 0.71875q0.78125 0 1.328125 -0.40625q0.546875 -0.40625 0.859375 -1.296875zm-4.609375 -2.28125l4.625 0q-0.09375 -1.046875 -0.53125 -1.5625q-0.671875 -0.8125 -1.734375 -0.8125q-0.96875 0 -1.640625 0.65625q-0.65625 0.640625 -0.71875 1.71875z" fill-rule="nonzero"/><path fill="#ffffff" d="m270.90158 170.1181l-78.43176 0c8.66333 0 15.686356 -13.694672 15.686356 -30.587921c0 -16.893242 -7.0230255 -30.587929 -15.686356 -30.587929l78.43176 0l0 0c8.66333 0 15.68634 13.694687 15.68634 30.587929c0 16.89325 -7.0230103 30.587921 -15.68634 30.587921z" fill-rule="evenodd"/><path stroke="#595959" stroke-width="1.0" stroke-linejoin="round" stroke-linecap="butt" d="m270.90158 170.1181l-78.43176 0c8.66333 0 15.686356 -13.694672 15.686356 -30.587921c0 -16.893242 -7.0230255 -30.587929 -15.686356 -30.587929l78.43176 0l0 0c8.66333 0 15.68634 13.694687 15.68634 30.587929c0 16.89325 -7.0230103 30.587921 -15.68634 30.587921z" fill-rule="evenodd"/><path fill="#000000" fill-opacity="0.0" d="m201.90886 117.677155l137.82677 0l0 43.086624l-137.82677 0z" fill-rule="evenodd"/><path fill="#434343" d="m216.07292 138.34966l1.4375 -0.125q0.09375 0.859375 0.46875 1.421875q0.375 0.546875 1.15625 0.890625q0.78125 0.328125 1.75 0.328125q0.875 0 1.53125 -0.25q0.671875 -0.265625 0.984375 -0.703125q0.328125 -0.453125 0.328125 -0.984375q0 -0.546875 -0.3125 -0.9375q-0.3125 -0.40625 -1.03125 -0.6875q-0.453125 -0.171875 -2.03125 -0.546875q-1.578125 -0.390625 -2.21875 -0.71875q-0.8125 -0.4375 -1.21875 -1.0625q-0.40625 -0.640625 -0.40625 -1.4375q0 -0.859375 0.484375 -1.609375q0.5 -0.765625 1.4375 -1.15625q0.953125 -0.390625 2.109375 -0.390625q1.28125 0 2.25 0.421875q0.96875 0.40625 1.484375 1.203125q0.53125 0.796875 0.578125 1.796875l-1.453125 0.109375q-0.125 -1.078125 -0.796875 -1.625q-0.671875 -0.5625 -2.0 -0.5625q-1.375 0 -2.0 0.5q-0.625 0.5 -0.625 1.21875q0 0.609375 0.4375 1.015625q0.4375 0.390625 2.28125 0.8125q1.859375 0.421875 2.546875 0.734375q1.0 0.453125 1.46875 1.171875q0.484375 0.703125 0.484375 1.625q0 0.90625 -0.53125 1.71875q-0.515625 0.8125 -1.5 1.265625q-0.984375 0.453125 -2.203125 0.453125q-1.5625 0 -2.609375 -0.453125q-1.046875 -0.46875 -1.65625 -1.375q-0.59375 -0.90625 -0.625 -2.0625zm11.015625 3.6875l0 -8.296875l1.265625 0l0 1.171875q0.90625 -1.359375 2.640625 -1.359375q0.75 0 1.375 0.265625q0.625 0.265625 0.9375 0.703125q0.3125 0.4375 0.4375 1.046875q0.078125 0.390625 0.078125 1.359375l0 5.109375l-1.40625 0l0 -5.046875q0 -0.859375 -0.171875 -1.28125q-0.15625 -0.4375 -0.578125 -0.6875q-0.40625 -0.25 -0.96875 -0.25q-0.90625 0 -1.5625 0.578125q-0.640625 0.5625 -0.640625 2.15625l0 4.53125l-1.40625 0zm14.3046875 -1.03125q-0.78125 0.671875 -1.5 0.953125q-0.71875 0.265625 -1.546875 0.265625q-1.375 0 -2.109375 -0.671875q-0.734375 -0.671875 -0.734375 -1.703125q0 -0.609375 0.28125 -1.109375q0.28125 -0.515625 0.71875 -0.8125q0.453125 -0.3125 1.015625 -0.46875q0.421875 -0.109375 1.25 -0.203125q1.703125 -0.203125 2.515625 -0.484375q0 -0.296875 0 -0.375q0 -0.859375 -0.390625 -1.203125q-0.546875 -0.484375 -1.609375 -0.484375q-0.984375 0 -1.46875 0.359375q-0.46875 0.34375 -0.6875 1.21875l-1.375 -0.1875q0.1875 -0.875 0.609375 -1.421875q0.4375 -0.546875 1.25 -0.828125q0.8125 -0.296875 1.875 -0.296875q1.0625 0 1.71875 0.25q0.671875 0.25 0.984375 0.625q0.3125 0.375 0.4375 0.953125q0.078125 0.359375 0.078125 1.296875l0 1.875q0 1.96875 0.078125 2.484375q0.09375 0.515625 0.359375 1.0l-1.46875 0q-0.21875 -0.4375 -0.28125 -1.03125zm-0.109375 -3.140625q-0.765625 0.3125 -2.296875 0.53125q-0.875 0.125 -1.234375 0.28125q-0.359375 0.15625 -0.5625 0.46875q-0.1875 0.296875 -0.1875 0.65625q0 0.5625 0.421875 0.9375q0.4375 0.375 1.25 0.375q0.8125 0 1.4375 -0.34375q0.640625 -0.359375 0.9375 -0.984375q0.234375 -0.46875 0.234375 -1.40625l0 -0.515625zm3.6015625 7.359375l0 -11.484375l1.28125 0l0 1.078125q0.453125 -0.640625 1.015625 -0.953125q0.578125 -0.3125 1.390625 -0.3125q1.0625 0 1.875 0.546875q0.8125 0.546875 1.21875 1.546875q0.421875 0.984375 0.421875 2.171875q0 1.28125 -0.46875 2.296875q-0.453125 1.015625 -1.328125 1.5625q-0.859375 0.546875 -1.828125 0.546875q-0.703125 0 -1.265625 -0.296875q-0.546875 -0.296875 -0.90625 -0.75l0 4.046875l-1.40625 0zm1.265625 -7.296875q0 1.609375 0.640625 2.375q0.65625 0.765625 1.578125 0.765625q0.9375 0 1.609375 -0.796875q0.671875 -0.796875 0.671875 -2.453125q0 -1.59375 -0.65625 -2.375q-0.65625 -0.796875 -1.5625 -0.796875q-0.890625 0 -1.59375 0.84375q-0.6875 0.84375 -0.6875 2.4375z" fill-rule="nonzero"/><path fill="#000000" fill-opacity="0.0" d="m138.51024 139.91063c13.533066 0 18.36139 -0.09448242 27.066116 -0.1889801c8.704727 -0.09448242 21.285843 -0.18896484 42.57167 -0.18896484" fill-rule="evenodd"/><path stroke="#595959" stroke-width="1.0" stroke-linejoin="round" stroke-linecap="butt" d="m138.51024 139.91063c13.533066 0 18.361404 -0.09448242 27.066116 -0.1889801c4.352371 -0.04724121 9.673828 -0.09448242 16.567917 -0.12991333c3.447052 -0.017715454 7.287262 -0.032485962 11.596069 -0.042816162c2.1544037 -0.0051727295 4.4259796 -0.009231567 6.824112 -0.011993408l4.156494 -0.0023345947" fill-rule="evenodd"/><path fill="#595959" stroke="#595959" stroke-width="1.0" stroke-linecap="butt" d="m204.72095 139.53459l-1.1239624 1.1252136l3.0891418 -1.1263123l-3.090393 -1.1228485z" fill-rule="evenodd"/><path fill="#ffffff" d="m156.02194 132.57889l24.755905 0l0 15.874023l-24.755905 0z" fill-rule="evenodd"/><path fill="#cbcbcb" d="m180.77785 132.57889l5.291336 -5.2913284l0 15.874016l-5.291336 5.291336z" fill-rule="evenodd"/><path fill="#ffffff" d="m156.02194 132.57889l5.291336 -5.2913284l24.755905 0l-5.291336 5.2913284z" fill-rule="evenodd"/><path fill="#000000" fill-opacity="0.0" d="m156.02194 132.57889l5.291336 -5.2913284l24.755905 0l0 15.874016l-5.291336 5.291336l-24.755905 0zm0 0l24.755905 0l5.291336 -5.2913284m-5.291336 5.2913284l0 15.874023" fill-rule="evenodd"/><path stroke="#666666" stroke-width="1.0" stroke-linejoin="round" stroke-linecap="butt" d="m156.02194 132.57889l5.291336 -5.2913284l24.755905 0l0 15.874016l-5.291336 5.291336l-24.755905 0zm0 0l24.755905 0l5.291336 -5.2913284m-5.291336 5.2913284l0 15.874023" fill-rule="evenodd"/><path fill="#ffffff" d="m342.3286 155.60818l24.75592 0l0 15.874008l-24.75592 0z" fill-rule="evenodd"/><path fill="#cbcbcb" d="m367.08453 155.60818l5.291321 -5.291336l0 15.874008l-5.291321 5.291336z" fill-rule="evenodd"/><path fill="#ffffff" d="m342.3286 155.60818l5.2913513 -5.291336l24.75589 0l-5.291321 5.291336z" fill-rule="evenodd"/><path fill="#000000" fill-opacity="0.0" d="m342.3286 155.60818l5.2913513 -5.291336l24.75589 0l0 15.874008l-5.291321 5.291336l-24.75592 0zm0 0l24.75592 0l5.291321 -5.291336m-5.291321 5.291336l0 15.874008" fill-rule="evenodd"/><path stroke="#666666" stroke-width="1.0" stroke-linejoin="round" stroke-linecap="butt" d="m342.3286 155.60818l5.2913513 -5.291336l24.75589 0l0 15.874008l-5.291321 5.291336l-24.75592 0zm0 0l24.75592 0l5.291321 -5.291336m-5.291321 5.291336l0 15.874008" fill-rule="evenodd"/><path fill="#ffffff" d="m596.6983 167.55797l24.75592 0l0 15.874023l-24.75592 0z" fill-rule="evenodd"/><path fill="#cbcbcb" d="m621.4542 167.55797l5.291321 -5.291336l0 15.874023l-5.291321 5.291336z" fill-rule="evenodd"/><path fill="#ffffff" d="m596.6983 167.55797l5.291321 -5.291336l24.75592 0l-5.291321 5.291336z" fill-rule="evenodd"/><path fill="#000000" fill-opacity="0.0" d="m596.6983 167.55797l5.291321 -5.291336l24.75592 0l0 15.874023l-5.291321 5.291336l-24.75592 0zm0 0l24.75592 0l5.291321 -5.291336m-5.291321 5.291336l0 15.874023" fill-rule="evenodd"/><path stroke="#666666" stroke-width="1.0" stroke-linejoin="round" stroke-linecap="butt" d="m596.6983 167.55797l5.291321 -5.291336l24.75592 0l0 15.874023l-5.291321 5.291336l-24.75592 0zm0 0l24.75592 0l5.291321 -5.291336m-5.291321 5.291336l0 15.874023" fill-rule="evenodd"/><path fill="#000000" fill-opacity="0.0" d="m352.32544 408.13516c0 4.950989 23.231842 8.964569 51.88977 8.964569c28.657928 0 51.88977 -4.0135803 51.88977 -8.964569l0 53.787415c0 4.950989 -23.231842 8.964569 -51.88977 8.964569c-28.657928 0 -51.88977 -4.0135803 -51.88977 -8.964569z" fill-rule="evenodd"/><path fill="#000000" fill-opacity="0.0" d="m352.32544 408.13516c0 -4.950989 23.231842 -8.964569 51.88977 -8.964569c28.657928 0 51.88977 4.0135803 51.88977 8.964569l0 0c0 4.950989 -23.231842 8.964569 -51.88977 8.964569c-28.657928 0 -51.88977 -4.0135803 -51.88977 -8.964569z" fill-rule="evenodd"/><path fill="#000000" fill-opacity="0.0" d="m456.10498 408.13516l0 0c0 4.950989 -23.231842 8.964569 -51.88977 8.964569c-28.657928 0 -51.88977 -4.0135803 -51.88977 -8.964569c0 -4.950989 23.231842 -8.964569 51.88977 -8.964569c28.657928 0 51.88977 4.0135803 51.88977 8.964569l0 53.787415c0 4.950989 -23.231842 8.964569 -51.88977 8.964569c-28.657928 0 -51.88977 -4.0135803 -51.88977 -8.964569l0 -53.787415" fill-rule="evenodd"/><path fill="#ffffff" fill-opacity="0.4" d="m352.32544 408.13516c0 -4.950989 23.231842 -8.964569 51.88977 -8.964569c28.657928 0 51.88977 4.0135803 51.88977 8.964569l0 0c0 4.950989 -23.231842 8.964569 -51.88977 8.964569c-28.657928 0 -51.88977 -4.0135803 -51.88977 -8.964569z" fill-rule="evenodd"/><path stroke="#666666" stroke-width="1.0" stroke-linejoin="round" stroke-linecap="butt" d="m456.10498 408.13516l0 0c0 4.950989 -23.231842 8.964569 -51.88977 8.964569c-28.657928 0 -51.88977 -4.0135803 -51.88977 -8.964569c0 -4.950989 23.231842 -8.964569 51.88977 -8.964569c28.657928 0 51.88977 4.0135803 51.88977 8.964569l0 53.787415c0 4.950989 -23.231842 8.964569 -51.88977 8.964569c-28.657928 0 -51.88977 -4.0135803 -51.88977 -8.964569l0 -53.787415" fill-rule="evenodd"/><path fill="#434343" d="m368.0238 441.68365l1.4375 -0.125q0.09375 0.859375 0.46875 1.421875q0.375 0.546875 1.15625 0.890625q0.78125 0.328125 1.75 0.328125q0.875 0 1.53125 -0.25q0.671875 -0.265625 0.984375 -0.703125q0.328125 -0.453125 0.328125 -0.984375q0 -0.546875 -0.3125 -0.9375q-0.3125 -0.40625 -1.03125 -0.6875q-0.453125 -0.171875 -2.03125 -0.546875q-1.578125 -0.390625 -2.21875 -0.71875q-0.8125 -0.4375 -1.21875 -1.0625q-0.40625 -0.640625 -0.40625 -1.4375q0 -0.859375 0.484375 -1.609375q0.5 -0.765625 1.4375 -1.15625q0.953125 -0.390625 2.109375 -0.390625q1.28125 0 2.25 0.421875q0.96875 0.40625 1.484375 1.203125q0.53125 0.796875 0.578125 1.796875l-1.453125 0.109375q-0.125 -1.078125 -0.796875 -1.625q-0.671875 -0.5625 -2.0 -0.5625q-1.375 0 -2.0 0.5q-0.625 0.5 -0.625 1.21875q0 0.609375 0.4375 1.015625q0.4375 0.390625 2.28125 0.8125q1.859375 0.421875 2.546875 0.734375q1.0 0.453125 1.46875 1.171875q0.484375 0.703125 0.484375 1.625q0 0.90625 -0.53125 1.71875q-0.515625 0.8125 -1.5 1.265625q-0.984375 0.453125 -2.203125 0.453125q-1.5625 0 -2.609375 -0.453125q-1.046875 -0.46875 -1.65625 -1.375q-0.59375 -0.90625 -0.625 -2.0625zm11.015625 3.6875l0 -8.296875l1.265625 0l0 1.171875q0.90625 -1.359375 2.640625 -1.359375q0.75 0 1.375 0.265625q0.625 0.265625 0.9375 0.703125q0.3125 0.4375 0.4375 1.046875q0.078125 0.390625 0.078125 1.359375l0 5.109375l-1.40625 0l0 -5.046875q0 -0.859375 -0.171875 -1.28125q-0.15625 -0.4375 -0.578125 -0.6875q-0.40625 -0.25 -0.96875 -0.25q-0.90625 0 -1.5625 0.578125q-0.640625 0.5625 -0.640625 2.15625l0 4.53125l-1.40625 0zm8.3671875 -4.15625q0 -2.296875 1.28125 -3.40625q1.078125 -0.921875 2.609375 -0.921875q1.71875 0 2.796875 1.125q1.09375 1.109375 1.09375 3.09375q0 1.59375 -0.484375 2.515625q-0.484375 0.921875 -1.40625 1.4375q-0.90625 0.5 -2.0 0.5q-1.734375 0 -2.8125 -1.109375q-1.078125 -1.125 -1.078125 -3.234375zm1.453125 0q0 1.59375 0.6875 2.390625q0.703125 0.796875 1.75 0.796875q1.046875 0 1.734375 -0.796875q0.703125 -0.796875 0.703125 -2.4375q0 -1.53125 -0.703125 -2.328125q-0.6875 -0.796875 -1.734375 -0.796875q-1.046875 0 -1.75 0.796875q-0.6875 0.78125 -0.6875 2.375zm9.5078125 4.15625l-2.546875 -8.296875l1.453125 0l1.328125 4.78125l0.484375 1.78125q0.03125 -0.125 0.4375 -1.703125l1.3125 -4.859375l1.453125 0l1.234375 4.8125l0.421875 1.578125l0.46875 -1.59375l1.421875 -4.796875l1.375 0l-2.59375 8.296875l-1.46875 0l-1.3125 -4.96875l-0.328125 -1.421875l-1.671875 6.390625l-1.46875 0zm10.3515625 0l0 -7.203125l-1.234375 0l0 -1.09375l1.234375 0l0 -0.890625q0 -0.828125 0.15625 -1.234375q0.203125 -0.546875 0.703125 -0.890625q0.515625 -0.34375 1.4375 -0.34375q0.59375 0 1.3125 0.140625l-0.203125 1.234375q-0.4375 -0.078125 -0.828125 -0.078125q-0.640625 0 -0.90625 0.28125q-0.265625 0.265625 -0.265625 1.015625l0 0.765625l1.609375 0l0 1.09375l-1.609375 0l0 7.203125l-1.40625 0zm4.0859375 0l0 -11.453125l1.40625 0l0 11.453125l-1.40625 0zm8.9921875 -1.03125q-0.78125 0.671875 -1.5 0.953125q-0.71875 0.265625 -1.546875 0.265625q-1.375 0 -2.109375 -0.671875q-0.734375 -0.671875 -0.734375 -1.703125q0 -0.609375 0.28125 -1.109375q0.28125 -0.515625 0.71875 -0.8125q0.453125 -0.3125 1.015625 -0.46875q0.421875 -0.109375 1.25 -0.203125q1.703125 -0.203125 2.515625 -0.484375q0 -0.296875 0 -0.375q0 -0.859375 -0.390625 -1.203125q-0.546875 -0.484375 -1.609375 -0.484375q-0.984375 0 -1.46875 0.359375q-0.46875 0.34375 -0.6875 1.21875l-1.375 -0.1875q0.1875 -0.875 0.609375 -1.421875q0.4375 -0.546875 1.25 -0.828125q0.8125 -0.296875 1.875 -0.296875q1.0625 0 1.71875 0.25q0.671875 0.25 0.984375 0.625q0.3125 0.375 0.4375 0.953125q0.078125 0.359375 0.078125 1.296875l0 1.875q0 1.96875 0.078125 2.484375q0.09375 0.515625 0.359375 1.0l-1.46875 0q-0.21875 -0.4375 -0.28125 -1.03125zm-0.109375 -3.140625q-0.765625 0.3125 -2.296875 0.53125q-0.875 0.125 -1.234375 0.28125q-0.359375 0.15625 -0.5625 0.46875q-0.1875 0.296875 -0.1875 0.65625q0 0.5625 0.421875 0.9375q0.4375 0.375 1.25 0.375q0.8125 0 1.4375 -0.34375q0.640625 -0.359375 0.9375 -0.984375q0.234375 -0.46875 0.234375 -1.40625l0 -0.515625zm3.6015625 4.171875l0 -11.453125l1.40625 0l0 6.53125l3.328125 -3.375l1.828125 0l-3.171875 3.078125l3.484375 5.21875l-1.734375 0l-2.734375 -4.25l-1.0 0.953125l0 3.296875l-1.40625 0zm13.671875 -2.671875l1.453125 0.171875q-0.34375 1.28125 -1.28125 1.984375q-0.921875 0.703125 -2.359375 0.703125q-1.828125 0 -2.890625 -1.125q-1.0625 -1.125 -1.0625 -3.140625q0 -2.09375 1.078125 -3.25q1.078125 -1.15625 2.796875 -1.15625q1.65625 0 2.703125 1.140625q1.0625 1.125 1.0625 3.171875q0 0.125 0 0.375l-6.1875 0q0.078125 1.375 0.765625 2.109375q0.703125 0.71875 1.734375 0.71875q0.78125 0 1.328125 -0.40625q0.546875 -0.40625 0.859375 -1.296875zm-4.609375 -2.28125l4.625 0q-0.09375 -1.046875 -0.53125 -1.5625q-0.671875 -0.8125 -1.734375 -0.8125q-0.96875 0 -1.640625 0.65625q-0.65625 0.640625 -0.71875 1.71875z" fill-rule="nonzero"/><path fill="#000000" fill-opacity="0.0" d="m622.73914 408.13516c0 4.950989 23.231873 8.964569 51.88977 8.964569c28.657959 0 51.88977 -4.0135803 51.88977 -8.964569l0 53.787415c0 4.950989 -23.231812 8.964569 -51.88977 8.964569c-28.657898 0 -51.88977 -4.0135803 -51.88977 -8.964569z" fill-rule="evenodd"/><path fill="#000000" fill-opacity="0.0" d="m622.73914 408.13516c0 -4.950989 23.231873 -8.964569 51.88977 -8.964569c28.657959 0 51.88977 4.0135803 51.88977 8.964569l0 0c0 4.950989 -23.231812 8.964569 -51.88977 8.964569c-28.657898 0 -51.88977 -4.0135803 -51.88977 -8.964569z" fill-rule="evenodd"/><path fill="#000000" fill-opacity="0.0" d="m726.5187 408.13516l0 0c0 4.950989 -23.231812 8.964569 -51.88977 8.964569c-28.657898 0 -51.88977 -4.0135803 -51.88977 -8.964569c0 -4.950989 23.231873 -8.964569 51.88977 -8.964569c28.657959 0 51.88977 4.0135803 51.88977 8.964569l0 53.787415c0 4.950989 -23.231812 8.964569 -51.88977 8.964569c-28.657898 0 -51.88977 -4.0135803 -51.88977 -8.964569l0 -53.787415" fill-rule="evenodd"/><path fill="#ffffff" fill-opacity="0.4" d="m622.73914 408.13516c0 -4.950989 23.231873 -8.964569 51.88977 -8.964569c28.657959 0 51.88977 4.0135803 51.88977 8.964569l0 0c0 4.950989 -23.231812 8.964569 -51.88977 8.964569c-28.657898 0 -51.88977 -4.0135803 -51.88977 -8.964569z" fill-rule="evenodd"/><path stroke="#666666" stroke-width="1.0" stroke-linejoin="round" stroke-linecap="butt" d="m726.5187 408.13516l0 0c0 4.950989 -23.231812 8.964569 -51.88977 8.964569c-28.657898 0 -51.88977 -4.0135803 -51.88977 -8.964569c0 -4.950989 23.231873 -8.964569 51.88977 -8.964569c28.657959 0 51.88977 4.0135803 51.88977 8.964569l0 53.787415c0 4.950989 -23.231812 8.964569 -51.88977 8.964569c-28.657898 0 -51.88977 -4.0135803 -51.88977 -8.964569l0 -53.787415" fill-rule="evenodd"/><path fill="#434343" d="m642.4531 445.37115l0 -11.453125l4.296875 0q1.3125 0 2.109375 0.34375q0.796875 0.34375 1.234375 1.078125q0.453125 0.71875 0.453125 1.5q0 0.734375 -0.40625 1.390625q-0.390625 0.640625 -1.1875 1.046875q1.03125 0.296875 1.59375 1.03125q0.5625 0.734375 0.5625 1.734375q0 0.8125 -0.34375 1.5q-0.34375 0.6875 -0.84375 1.0625q-0.5 0.375 -1.25 0.578125q-0.75 0.1875 -1.84375 0.1875l-4.375 0zm1.515625 -6.640625l2.484375 0q1.0 0 1.4375 -0.140625q0.578125 -0.171875 0.875 -0.5625q0.296875 -0.40625 0.296875 -1.0q0 -0.578125 -0.28125 -1.0q-0.265625 -0.4375 -0.78125 -0.59375q-0.5 -0.171875 -1.734375 -0.171875l-2.296875 0l0 3.46875zm0 5.28125l2.859375 0q0.734375 0 1.03125 -0.046875q0.515625 -0.09375 0.859375 -0.3125q0.359375 -0.21875 0.578125 -0.640625q0.234375 -0.421875 0.234375 -0.96875q0 -0.640625 -0.328125 -1.109375q-0.328125 -0.46875 -0.90625 -0.65625q-0.578125 -0.203125 -1.671875 -0.203125l-2.65625 0l0 3.9375zm9.046875 -8.484375l0 -1.609375l1.40625 0l0 1.609375l-1.40625 0zm0 9.84375l0 -8.296875l1.40625 0l0 8.296875l-1.40625 0zm3.2890625 0.6875l1.375 0.203125q0.078125 0.640625 0.46875 0.921875q0.53125 0.390625 1.4375 0.390625q0.96875 0 1.5 -0.390625q0.53125 -0.390625 0.71875 -1.09375q0.109375 -0.421875 0.109375 -1.8125q-0.921875 1.09375 -2.296875 1.09375q-1.71875 0 -2.65625 -1.234375q-0.9375 -1.234375 -0.9375 -2.96875q0 -1.1875 0.421875 -2.1875q0.4375 -1.0 1.25 -1.546875q0.828125 -0.546875 1.921875 -0.546875q1.46875 0 2.421875 1.1875l0 -1.0l1.296875 0l0 7.171875q0 1.9375 -0.390625 2.75q-0.390625 0.8125 -1.25 1.28125q-0.859375 0.46875 -2.109375 0.46875q-1.484375 0 -2.40625 -0.671875q-0.90625 -0.671875 -0.875 -2.015625zm1.171875 -4.984375q0 1.625 0.640625 2.375q0.65625 0.75 1.625 0.75q0.96875 0 1.625 -0.734375q0.65625 -0.75 0.65625 -2.34375q0 -1.53125 -0.671875 -2.296875q-0.671875 -0.78125 -1.625 -0.78125q-0.9375 0 -1.59375 0.765625q-0.65625 0.765625 -0.65625 2.265625zm16.851562 3.0625q1.046875 0.734375 1.9375 1.0625l-0.4375 1.0625q-1.234375 -0.4375 -2.46875 -1.40625q-1.265625 0.71875 -2.8125 0.71875q-1.546875 0 -2.8125 -0.75q-1.265625 -0.765625 -1.953125 -2.125q-0.6875 -1.359375 -0.6875 -3.0625q0 -1.6875 0.6875 -3.078125q0.6875 -1.390625 1.953125 -2.109375q1.28125 -0.734375 2.84375 -0.734375q1.59375 0 2.859375 0.75q1.28125 0.75 1.9375 2.109375q0.671875 1.359375 0.671875 3.0625q0 1.40625 -0.4375 2.546875q-0.421875 1.125 -1.28125 1.953125zm-3.34375 -1.9375q1.3125 0.375 2.171875 1.09375q1.328125 -1.21875 1.328125 -3.65625q0 -1.390625 -0.46875 -2.421875q-0.46875 -1.046875 -1.390625 -1.625q-0.90625 -0.578125 -2.03125 -0.578125q-1.703125 0 -2.828125 1.171875q-1.109375 1.15625 -1.109375 3.453125q0 2.234375 1.109375 3.4375q1.109375 1.1875 2.828125 1.1875q0.8125 0 1.53125 -0.296875q-0.71875 -0.46875 -1.5 -0.65625l0.359375 -1.109375zm12.3671875 3.171875l0 -1.21875q-0.96875 1.40625 -2.640625 1.40625q-0.734375 0 -1.375 -0.28125q-0.625 -0.28125 -0.9375 -0.703125q-0.3125 -0.4375 -0.4375 -1.046875q-0.078125 -0.421875 -0.078125 -1.3125l0 -5.140625l1.40625 0l0 4.59375q0 1.109375 0.078125 1.484375q0.140625 0.5625 0.5625 0.875q0.4375 0.3125 1.0625 0.3125q0.640625 0 1.1875 -0.3125q0.5625 -0.328125 0.78125 -0.890625q0.234375 -0.5625 0.234375 -1.625l0 -4.4375l1.40625 0l0 8.296875l-1.25 0zm9.1328125 -2.671875l1.453125 0.171875q-0.34375 1.28125 -1.28125 1.984375q-0.921875 0.703125 -2.359375 0.703125q-1.828125 0 -2.890625 -1.125q-1.0625 -1.125 -1.0625 -3.140625q0 -2.09375 1.078125 -3.25q1.078125 -1.15625 2.796875 -1.15625q1.65625 0 2.703125 1.140625q1.0625 1.125 1.0625 3.171875q0 0.125 0 0.375l-6.1875 0q0.078125 1.375 0.765625 2.109375q0.703125 0.71875 1.734375 0.71875q0.78125 0 1.328125 -0.40625q0.546875 -0.40625 0.859375 -1.296875zm-4.609375 -2.28125l4.625 0q-0.09375 -1.046875 -0.53125 -1.5625q-0.671875 -0.8125 -1.734375 -0.8125q-0.96875 0 -1.640625 0.65625q-0.65625 0.640625 -0.71875 1.71875zm7.8203125 4.953125l0 -8.296875l1.265625 0l0 1.25q0.484375 -0.875 0.890625 -1.15625q0.40625 -0.28125 0.90625 -0.28125q0.703125 0 1.4375 0.453125l-0.484375 1.296875q-0.515625 -0.296875 -1.03125 -0.296875q-0.453125 0 -0.828125 0.28125q-0.359375 0.265625 -0.515625 0.765625q-0.234375 0.75 -0.234375 1.640625l0 4.34375l-1.40625 0zm5.28125 3.203125l-0.15625 -1.328125q0.453125 0.125 0.796875 0.125q0.46875 0 0.75 -0.15625q0.28125 -0.15625 0.46875 -0.4375q0.125 -0.203125 0.421875 -1.046875q0.046875 -0.109375 0.125 -0.34375l-3.140625 -8.3125l1.515625 0l1.71875 4.796875q0.34375 0.921875 0.609375 1.921875q0.234375 -0.96875 0.578125 -1.890625l1.765625 -4.828125l1.40625 0l-3.15625 8.4375q-0.5 1.375 -0.78125 1.890625q-0.375 0.6875 -0.859375 1.015625q-0.484375 0.328125 -1.15625 0.328125q-0.40625 0 -0.90625 -0.171875z" fill-rule="nonzero"/><path fill="#000000" fill-opacity="0.0" d="m221.13765 407.06955l81.99858 0l0 56.299713c-40.99707 0 -40.99707 21.661316 -81.99858 10.830658zm6.7556763 0l0 -7.2989197l81.43855 0l0 56.652893c-3.0956116 0 -6.195648 0.39242554 -6.195648 0.39242554l0 -49.7464zm6.349991 -7.2989197l0 -7.122345l82.144104 0l0 56.47635c-3.527771 0 -7.055542 0.29431152 -7.055542 0.29431152l0 -49.648315z" fill-rule="evenodd"/><path fill="#000000" fill-opacity="0.0" d="m221.13765 407.06955l81.99858 0l0 56.299713c-40.99707 0 -40.99707 21.661316 -81.99858 10.830658zm6.7556763 0l0 -7.2989197l81.43855 0l0 56.652893c-3.0956116 0 -6.195648 0.39242554 -6.195648 0.39242554m-68.892914 -57.04532l0 -7.122345l82.144104 0l0 56.47635c-3.527771 0 -7.055542 0.29431152 -7.055542 0.29431152" fill-rule="evenodd"/><path fill="#000000" fill-opacity="0.0" d="m221.13765 474.19992c41.00151 10.830658 41.00151 -10.830658 81.99858 -10.830658l0 -6.553314c0 0 3.1000366 -0.39242554 6.195648 -0.39242554l0 -7.0045776c0 0 3.527771 -0.29431152 7.055542 -0.29431152l0 -56.47635l-82.144104 0l0 7.122345l-6.349991 0l0 7.2989197l-6.7556763 0z" fill-rule="evenodd"/><path stroke="#666666" stroke-width="1.0" stroke-linejoin="round" stroke-linecap="butt" d="m221.13765 407.06955l81.99858 0l0 56.299713c-40.99707 0 -40.99707 21.661316 -81.99858 10.830658zm6.7556763 0l0 -7.2989197l81.43855 0l0 56.652893c-3.0956116 0 -6.195648 0.39242554 -6.195648 0.39242554m-68.892914 -57.04532l0 -7.122345l82.144104 0l0 56.47635c-3.527771 0 -7.055542 0.29431152 -7.055542 0.29431152" fill-rule="evenodd"/><path fill="#434343" d="m253.07054 442.80722l1.4375 -0.125q0.09375 0.859375 0.46875 1.421875q0.375 0.546875 1.1562347 0.890625q0.78125 0.328125 1.75 0.328125q0.875 0 1.53125 -0.25q0.671875 -0.265625 0.984375 -0.703125q0.328125 -0.453125 0.328125 -0.984375q0 -0.546875 -0.3125 -0.9375q-0.3125 -0.40625 -1.03125 -0.6875q-0.453125 -0.171875 -2.03125 -0.546875q-1.5781097 -0.390625 -2.2187347 -0.71875q-0.8125 -0.4375 -1.21875 -1.0625q-0.40625 -0.640625 -0.40625 -1.4375q0 -0.859375 0.484375 -1.609375q0.5 -0.765625 1.4375 -1.15625q0.95310974 -0.390625 2.1093597 -0.390625q1.28125 0 2.25 0.421875q0.96875 0.40625 1.484375 1.203125q0.53125 0.796875 0.578125 1.796875l-1.453125 0.109375q-0.125 -1.078125 -0.796875 -1.625q-0.671875 -0.5625 -2.0 -0.5625q-1.375 0 -1.9999847 0.5q-0.625 0.5 -0.625 1.21875q0 0.609375 0.4375 1.015625q0.4375 0.390625 2.2812347 0.8125q1.859375 0.421875 2.546875 0.734375q1.0 0.453125 1.46875 1.171875q0.484375 0.703125 0.484375 1.625q0 0.90625 -0.53125 1.71875q-0.515625 0.8125 -1.5 1.265625q-0.984375 0.453125 -2.203125 0.453125q-1.5625 0 -2.6093597 -0.453125q-1.046875 -0.46875 -1.65625 -1.375q-0.59375 -0.90625 -0.625 -2.0625zm10.624985 0.65625l1.40625 -0.1875q0.25 1.203125 0.828125 1.734375q0.578125 0.515625 1.421875 0.515625q0.984375 0 1.671875 -0.6875q0.6875 -0.6875 0.6875 -1.703125q0 -0.96875 -0.640625 -1.59375q-0.625 -0.625 -1.609375 -0.625q-0.390625 0 -0.984375 0.15625l0.15625 -1.234375q0.140625 0.015625 0.21875 0.015625q0.90625 0 1.625 -0.46875q0.71875 -0.46875 0.71875 -1.453125q0 -0.765625 -0.53125 -1.265625q-0.515625 -0.515625 -1.34375 -0.515625q-0.828125 0 -1.375 0.515625q-0.546875 0.515625 -0.703125 1.546875l-1.40625 -0.25q0.265625 -1.421875 1.171875 -2.1875q0.921875 -0.78125 2.28125 -0.78125q0.9375 0 1.71875 0.40625q0.796875 0.390625 1.203125 1.09375q0.421875 0.6875 0.421875 1.46875q0 0.75 -0.40625 1.359375q-0.390625 0.609375 -1.171875 0.96875q1.015625 0.234375 1.578125 0.96875q0.5625 0.734375 0.5625 1.84375q0 1.5 -1.09375 2.546875q-1.09375 1.046875 -2.765625 1.046875q-1.5 0 -2.5 -0.890625q-1.0 -0.90625 -1.140625 -2.34375z" fill-rule="nonzero"/><path fill="#000000" fill-opacity="0.0" d="m18.080027 252.40536l0 0c-1.0683403 -7.95726 2.4392319 -15.834457 9.034325 -20.289017c6.5950947 -4.4545593 15.121073 -4.705246 21.960047 -0.64567566l0 0c2.422573 -4.6266785 6.8565903 -7.8210754 11.960846 -8.616959c5.104252 -0.7958832 10.27924 0.90023804 13.959606 4.5753174l0 0c2.0637283 -4.1948547 6.1158752 -7.0132446 10.718544 -7.4550934c4.602669 -0.4418335 9.104469 1.5554199 11.907921 5.2830353l0 0c3.7284088 -4.446533 9.660416 -6.318695 15.229187 -4.806427c5.568779 1.5122833 9.774132 6.1374054 10.796371 11.874039l0 0c4.5679398 1.2628174 8.372948 4.473114 10.431908 8.801407c2.05896 4.328308 2.1699219 9.350037 0.30419922 13.767731l0 0c4.4980927 5.9334564 5.550308 13.839706 2.763977 20.768265c-2.7863312 6.928589 -8.992569 11.8385315 -16.302689 12.897583c-0.05152893 6.502716 -3.5702362 12.469543 -9.19986 15.600555c-5.629631 3.1310425 -12.491089 2.9374084 -17.939682 -0.50631714l0 0c-2.3208084 7.788147 -8.853111 13.518555 -16.774712 14.715546c-7.9216003 1.1969604 -15.812401 -2.3540955 -20.263275 -9.118988l0 0c-5.455841 3.3344421 -12.002399 4.294983 -18.162899 2.6649475c-6.1604996 -1.6300354 -11.416014 -5.713318 -14.581001 -11.328796l0 0c-5.575186 0.6612549 -10.96562 -2.266327 -13.49605 -7.329773c-2.530429 -5.063446 -1.6621857 -11.1848755 2.1738243 -15.326233l0 0c-4.9732103 -2.9666748 -7.510842 -8.853546 -6.2896194 -14.590851c1.2212219 -5.7373047 5.9245644 -10.024918 11.657419 -10.627045z" fill-rule="evenodd"/><path fill="#000000" fill-opacity="0.0" d="m12.602022 277.92993l0 0c2.3468723 1.3999939 5.0580616 2.0350647 7.7695427 1.8199158m3.5514603 20.836609c1.1660385 -0.13827515 2.3089771 -0.43115234 3.3993397 -0.8710022m29.34293 9.534485c-0.82011414 -1.2464905 -1.5067558 -2.5784912 -2.0482254 -3.9732666m39.087635 -1.6235046l0 0c0.4231186 -1.4198914 0.697258 -2.8812866 0.81785583 -4.359741m26.320656 -10.733978c0.054855347 -6.923126 -3.8248749 -13.262024 -9.972725 -16.293945m23.5113 -17.371155c-0.9956207 2.3574524 -2.5155487 4.4487305 -4.440613 6.109833m-6.294548 -28.679596l0 0c0.16963959 0.95199585 0.24814606 1.9182892 0.23444366 2.8855133m-26.259567 -9.952835l0 0c-0.9300537 1.1091766 -1.6962967 2.3486786 -2.2748642 3.6799011m-20.351807 -1.5083313l0 0c-0.49564362 1.0074615 -0.8657532 2.073532 -1.1018066 3.1736603m-24.81903 0.8680725l0 0c1.4471207 0.85899353 2.7859077 1.8928986 3.986946 3.0789795m-34.98092 17.85582l0 0c0.1472435 1.0967102 0.37989807 2.1799164 0.6957855 3.239441" fill-rule="evenodd"/><path stroke="#434343" stroke-width="1.0" stroke-linejoin="round" stroke-linecap="butt" d="m18.080027 252.40536l0 0c-1.0683403 -7.95726 2.4392319 -15.834457 9.034325 -20.289017c6.5950947 -4.4545593 15.121073 -4.705246 21.960047 -0.64567566l0 0c2.422573 -4.6266785 6.8565903 -7.8210754 11.960846 -8.616959c5.104252 -0.7958832 10.27924 0.90023804 13.959606 4.5753174l0 0c2.0637283 -4.1948547 6.1158752 -7.0132446 10.718544 -7.4550934c4.602669 -0.4418335 9.104469 1.5554199 11.907921 5.2830353l0 0c3.7284088 -4.446533 9.660416 -6.318695 15.229187 -4.806427c5.568779 1.5122833 9.774132 6.1374054 10.796371 11.874039l0 0c4.5679398 1.2628174 8.372948 4.473114 10.431908 8.801407c2.05896 4.328308 2.1699219 9.350037 0.30419922 13.767731l0 0c4.4980927 5.9334564 5.550308 13.839706 2.763977 20.768265c-2.7863312 6.928589 -8.992569 11.8385315 -16.302689 12.897583c-0.05152893 6.502716 -3.5702362 12.469543 -9.19986 15.600555c-5.629631 3.1310425 -12.491089 2.9374084 -17.939682 -0.50631714l0 0c-2.3208084 7.788147 -8.853111 13.518555 -16.774712 14.715546c-7.9216003 1.1969604 -15.812401 -2.3540955 -20.263275 -9.118988l0 0c-5.455841 3.3344421 -12.002399 4.294983 -18.162899 2.6649475c-6.1604996 -1.6300354 -11.416014 -5.713318 -14.581001 -11.328796l0 0c-5.575186 0.6612549 -10.96562 -2.266327 -13.49605 -7.329773c-2.530429 -5.063446 -1.6621857 -11.1848755 2.1738243 -15.326233l0 0c-4.9732103 -2.9666748 -7.510842 -8.853546 -6.2896194 -14.590851c1.2212219 -5.7373047 5.9245644 -10.024918 11.657419 -10.627045z" fill-rule="evenodd"/><path stroke="#434343" stroke-width="1.0" stroke-linejoin="round" stroke-linecap="butt" d="m12.602022 277.92993l0 0c2.3468723 1.3999939 5.0580616 2.0350647 7.7695427 1.8199158m3.5514603 20.836609c1.1660385 -0.13827515 2.3089771 -0.43115234 3.3993397 -0.8710022m29.34293 9.534485c-0.82011414 -1.2464905 -1.5067558 -2.5784912 -2.0482254 -3.9732666m39.087635 -1.6235046l0 0c0.4231186 -1.4198914 0.697258 -2.8812866 0.81785583 -4.359741m26.320656 -10.733978c0.054855347 -6.923126 -3.8248749 -13.262024 -9.972725 -16.293945m23.5113 -17.371155c-0.9956207 2.3574524 -2.5155487 4.4487305 -4.440613 6.109833m-6.294548 -28.679596l0 0c0.16963959 0.95199585 0.24814606 1.9182892 0.23444366 2.8855133m-26.259567 -9.952835l0 0c-0.9300537 1.1091766 -1.6962967 2.3486786 -2.2748642 3.6799011m-20.351807 -1.5083313l0 0c-0.49564362 1.0074615 -0.8657532 2.073532 -1.1018066 3.1736603m-24.81903 0.8680725l0 0c1.4471207 0.85899353 2.7859077 1.8928986 3.986946 3.0789795m-34.98092 17.85582l0 0c0.1472435 1.0967102 0.37989807 2.1799164 0.6957855 3.239441" fill-rule="evenodd"/><path fill="#434343" d="m43.029205 268.80157l1.4375 -0.125q0.09375 0.859375 0.46875 1.421875q0.375 0.546875 1.15625 0.890625q0.78125 0.328125 1.75 0.328125q0.875 0 1.53125 -0.25q0.671875 -0.265625 0.984375 -0.703125q0.328125 -0.453125 0.328125 -0.984375q0 -0.546875 -0.3125 -0.9375q-0.3125 -0.40625 -1.03125 -0.6875q-0.453125 -0.171875 -2.03125 -0.546875q-1.578125 -0.390625 -2.21875 -0.71875q-0.8125 -0.4375 -1.21875 -1.0625q-0.40625 -0.640625 -0.40625 -1.4375q0 -0.859375 0.484375 -1.609375q0.5 -0.765625 1.4375 -1.15625q0.953125 -0.390625 2.109375 -0.390625q1.28125 0 2.25 0.421875q0.96875 0.40625 1.484375 1.203125q0.53125 0.796875 0.578125 1.796875l-1.453125 0.109375q-0.125 -1.078125 -0.796875 -1.625q-0.671875 -0.5625 -2.0 -0.5625q-1.375 0 -2.0 0.5q-0.625 0.5 -0.625 1.21875q0 0.609375 0.4375 1.015625q0.4375 0.390625 2.28125 0.8125q1.859375 0.421875 2.546875 0.734375q1.0 0.453125 1.46875 1.171875q0.484375 0.703125 0.484375 1.625q0 0.90625 -0.53125 1.71875q-0.515625 0.8125 -1.5 1.265625q-0.984375 0.453125 -2.203125 0.453125q-1.5625 0 -2.609375 -0.453125q-1.046875 -0.46875 -1.65625 -1.375q-0.59375 -0.90625 -0.625 -2.0625zm10.484375 -0.46875q0 -2.296875 1.28125 -3.40625q1.078125 -0.921875 2.609375 -0.921875q1.71875 0 2.796875 1.125q1.09375 1.109375 1.09375 3.09375q0 1.59375 -0.484375 2.515625q-0.484375 0.921875 -1.40625 1.4375q-0.90625 0.5 -2.0 0.5q-1.734375 0 -2.8125 -1.109375q-1.078125 -1.125 -1.078125 -3.234375zm1.453125 0q0 1.59375 0.6875 2.390625q0.703125 0.796875 1.75 0.796875q1.046875 0 1.734375 -0.796875q0.703125 -0.796875 0.703125 -2.4375q0 -1.53125 -0.703125 -2.328125q-0.6875 -0.796875 -1.734375 -0.796875q-1.046875 0 -1.75 0.796875q-0.6875 0.78125 -0.6875 2.375zm13.4140625 4.15625l0 -1.21875q-0.96875 1.40625 -2.640625 1.40625q-0.734375 0 -1.375 -0.28125q-0.625 -0.28125 -0.9375 -0.703125q-0.3125 -0.4375 -0.4375 -1.046875q-0.078125 -0.421875 -0.078125 -1.3125l0 -5.140625l1.40625 0l0 4.59375q0 1.109375 0.078125 1.484375q0.140625 0.5625 0.5625 0.875q0.4375 0.3125 1.0625 0.3125q0.640625 0 1.1875 -0.3125q0.5625 -0.328125 0.78125 -0.890625q0.234375 -0.5625 0.234375 -1.625l0 -4.4375l1.40625 0l0 8.296875l-1.25 0zm3.4453125 0l0 -8.296875l1.265625 0l0 1.25q0.484375 -0.875 0.890625 -1.15625q0.40625 -0.28125 0.90625 -0.28125q0.703125 0 1.4375 0.453125l-0.484375 1.296875q-0.515625 -0.296875 -1.03125 -0.296875q-0.453125 0 -0.828125 0.28125q-0.359375 0.265625 -0.515625 0.765625q-0.234375 0.75 -0.234375 1.640625l0 4.34375l-1.40625 0zm10.75 -3.046875l1.390625 0.1875q-0.234375 1.421875 -1.171875 2.234375q-0.921875 0.8125 -2.28125 0.8125q-1.703125 0 -2.75 -1.109375q-1.03125 -1.125 -1.03125 -3.203125q0 -1.34375 0.4375 -2.34375q0.453125 -1.015625 1.359375 -1.515625q0.921875 -0.5 1.984375 -0.5q1.359375 0 2.21875 0.6875q0.859375 0.671875 1.09375 1.9375l-1.359375 0.203125q-0.203125 -0.828125 -0.703125 -1.25q-0.484375 -0.421875 -1.1875 -0.421875q-1.0625 0 -1.734375 0.765625q-0.65625 0.75 -0.65625 2.40625q0 1.671875 0.640625 2.4375q0.640625 0.75 1.671875 0.75q0.828125 0 1.375 -0.5q0.5625 -0.515625 0.703125 -1.578125zm8.265625 0.375l1.453125 0.171875q-0.34375 1.28125 -1.28125 1.984375q-0.921875 0.703125 -2.359375 0.703125q-1.828125 0 -2.890625 -1.125q-1.0625 -1.125 -1.0625 -3.140625q0 -2.09375 1.078125 -3.25q1.078125 -1.15625 2.796875 -1.15625q1.65625 0 2.703125 1.140625q1.0625 1.125 1.0625 3.171875q0 0.125 0 0.375l-6.1875 0q0.078125 1.375 0.765625 2.109375q0.703125 0.71875 1.734375 0.71875q0.78125 0 1.328125 -0.40625q0.546875 -0.40625 0.859375 -1.296875zm-4.609375 -2.28125l4.625 0q-0.09375 -1.046875 -0.53125 -1.5625q-0.671875 -0.8125 -1.734375 -0.8125q-0.96875 0 -1.640625 0.65625q-0.65625 0.640625 -0.71875 1.71875z" fill-rule="nonzero"/><path fill="#ffffff" d="m270.90158 299.12228l-78.43176 0c8.66333 0 15.686356 -13.694672 15.686356 -30.587921c0 -16.893234 -7.0230255 -30.587921 -15.686356 -30.587921l78.43176 0l0 0c8.66333 0 15.68634 13.694687 15.68634 30.587921c0 16.89325 -7.0230103 30.587921 -15.68634 30.587921z" fill-rule="evenodd"/><path stroke="#595959" stroke-width="1.0" stroke-linejoin="round" stroke-linecap="butt" d="m270.90158 299.12228l-78.43176 0c8.66333 0 15.686356 -13.694672 15.686356 -30.587921c0 -16.893234 -7.0230255 -30.587921 -15.686356 -30.587921l78.43176 0l0 0c8.66333 0 15.68634 13.694687 15.68634 30.587921c0 16.89325 -7.0230103 30.587921 -15.68634 30.587921z" fill-rule="evenodd"/><path fill="#000000" fill-opacity="0.0" d="m201.90886 246.68134l137.82677 0l0 43.08661l-137.82677 0z" fill-rule="evenodd"/><path fill="#434343" d="m216.07292 267.35385l1.4375 -0.125q0.09375 0.859375 0.46875 1.421875q0.375 0.546875 1.15625 0.890625q0.78125 0.328125 1.75 0.328125q0.875 0 1.53125 -0.25q0.671875 -0.265625 0.984375 -0.703125q0.328125 -0.453125 0.328125 -0.984375q0 -0.546875 -0.3125 -0.9375q-0.3125 -0.40625 -1.03125 -0.6875q-0.453125 -0.171875 -2.03125 -0.546875q-1.578125 -0.390625 -2.21875 -0.71875q-0.8125 -0.4375 -1.21875 -1.0625q-0.40625 -0.640625 -0.40625 -1.4375q0 -0.859375 0.484375 -1.609375q0.5 -0.765625 1.4375 -1.15625q0.953125 -0.390625 2.109375 -0.390625q1.28125 0 2.25 0.421875q0.96875 0.40625 1.484375 1.203125q0.53125 0.796875 0.578125 1.796875l-1.453125 0.109375q-0.125 -1.078125 -0.796875 -1.625q-0.671875 -0.5625 -2.0 -0.5625q-1.375 0 -2.0 0.5q-0.625 0.5 -0.625 1.21875q0 0.609375 0.4375 1.015625q0.4375 0.390625 2.28125 0.8125q1.859375 0.421875 2.546875 0.734375q1.0 0.453125 1.46875 1.171875q0.484375 0.703125 0.484375 1.625q0 0.90625 -0.53125 1.71875q-0.515625 0.8125 -1.5 1.265625q-0.984375 0.453125 -2.203125 0.453125q-1.5625 0 -2.609375 -0.453125q-1.046875 -0.46875 -1.65625 -1.375q-0.59375 -0.90625 -0.625 -2.0625zm11.015625 3.6875l0 -8.296875l1.265625 0l0 1.171875q0.90625 -1.359375 2.640625 -1.359375q0.75 0 1.375 0.265625q0.625 0.265625 0.9375 0.703125q0.3125 0.4375 0.4375 1.046875q0.078125 0.390625 0.078125 1.359375l0 5.109375l-1.40625 0l0 -5.046875q0 -0.859375 -0.171875 -1.28125q-0.15625 -0.4375 -0.578125 -0.6875q-0.40625 -0.25 -0.96875 -0.25q-0.90625 0 -1.5625 0.578125q-0.640625 0.5625 -0.640625 2.15625l0 4.53125l-1.40625 0zm14.3046875 -1.03125q-0.78125 0.671875 -1.5 0.953125q-0.71875 0.265625 -1.546875 0.265625q-1.375 0 -2.109375 -0.671875q-0.734375 -0.671875 -0.734375 -1.703125q0 -0.609375 0.28125 -1.109375q0.28125 -0.515625 0.71875 -0.8125q0.453125 -0.3125 1.015625 -0.46875q0.421875 -0.109375 1.25 -0.203125q1.703125 -0.203125 2.515625 -0.484375q0 -0.296875 0 -0.375q0 -0.859375 -0.390625 -1.203125q-0.546875 -0.484375 -1.609375 -0.484375q-0.984375 0 -1.46875 0.359375q-0.46875 0.34375 -0.6875 1.21875l-1.375 -0.1875q0.1875 -0.875 0.609375 -1.421875q0.4375 -0.546875 1.25 -0.828125q0.8125 -0.296875 1.875 -0.296875q1.0625 0 1.71875 0.25q0.671875 0.25 0.984375 0.625q0.3125 0.375 0.4375 0.953125q0.078125 0.359375 0.078125 1.296875l0 1.875q0 1.96875 0.078125 2.484375q0.09375 0.515625 0.359375 1.0l-1.46875 0q-0.21875 -0.4375 -0.28125 -1.03125zm-0.109375 -3.140625q-0.765625 0.3125 -2.296875 0.53125q-0.875 0.125 -1.234375 0.28125q-0.359375 0.15625 -0.5625 0.46875q-0.1875 0.296875 -0.1875 0.65625q0 0.5625 0.421875 0.9375q0.4375 0.375 1.25 0.375q0.8125 0 1.4375 -0.34375q0.640625 -0.359375 0.9375 -0.984375q0.234375 -0.46875 0.234375 -1.40625l0 -0.515625zm3.6015625 7.359375l0 -11.484375l1.28125 0l0 1.078125q0.453125 -0.640625 1.015625 -0.953125q0.578125 -0.3125 1.390625 -0.3125q1.0625 0 1.875 0.546875q0.8125 0.546875 1.21875 1.546875q0.421875 0.984375 0.421875 2.171875q0 1.28125 -0.46875 2.296875q-0.453125 1.015625 -1.328125 1.5625q-0.859375 0.546875 -1.828125 0.546875q-0.703125 0 -1.265625 -0.296875q-0.546875 -0.296875 -0.90625 -0.75l0 4.046875l-1.40625 0zm1.265625 -7.296875q0 1.609375 0.640625 2.375q0.65625 0.765625 1.578125 0.765625q0.9375 0 1.609375 -0.796875q0.671875 -0.796875 0.671875 -2.453125q0 -1.59375 -0.65625 -2.375q-0.65625 -0.796875 -1.5625 -0.796875q-0.890625 0 -1.59375 0.84375q-0.6875 0.84375 -0.6875 2.4375z" fill-rule="nonzero"/><path fill="#000000" fill-opacity="0.0" d="m138.51024 268.91483c13.533066 0 18.36139 -0.09451294 27.066116 -0.18899536c8.704727 -0.09448242 21.285843 -0.18896484 42.57167 -0.18896484" fill-rule="evenodd"/><path stroke="#595959" stroke-width="1.0" stroke-linejoin="round" stroke-linecap="butt" d="m138.51024 268.91483c13.533066 0 18.361404 -0.09448242 27.066116 -0.18899536c4.352371 -0.04724121 9.673828 -0.09448242 16.567917 -0.12991333c3.447052 -0.017700195 7.287262 -0.032470703 11.596069 -0.042816162c2.1544037 -0.0051574707 4.4259796 -0.009216309 6.824112 -0.011993408l4.156494 -0.002319336" fill-rule="evenodd"/><path fill="#595959" stroke="#595959" stroke-width="1.0" stroke-linecap="butt" d="m204.72095 268.5388l-1.1239624 1.1252136l3.0891418 -1.1263123l-3.090393 -1.1228638z" fill-rule="evenodd"/><path fill="#ffffff" d="m155.05229 262.62073l24.755905 0l0 15.874023l-24.755905 0z" fill-rule="evenodd"/><path fill="#cbcbcb" d="m179.8082 262.62073l5.2913513 -5.291321l0 15.873993l-5.2913513 5.2913513z" fill-rule="evenodd"/><path fill="#ffffff" d="m155.05229 262.62073l5.2913513 -5.291321l24.755905 0l-5.2913513 5.291321z" fill-rule="evenodd"/><path fill="#000000" fill-opacity="0.0" d="m155.05229 262.62073l5.2913513 -5.291321l24.755905 0l0 15.873993l-5.2913513 5.2913513l-24.755905 0zm0 0l24.755905 0l5.2913513 -5.291321m-5.2913513 5.291321l0 15.874023" fill-rule="evenodd"/><path stroke="#666666" stroke-width="1.0" stroke-linejoin="round" stroke-linecap="butt" d="m155.05229 262.62073l5.2913513 -5.291321l24.755905 0l0 15.873993l-5.2913513 5.2913513l-24.755905 0zm0 0l24.755905 0l5.2913513 -5.291321m-5.2913513 5.291321l0 15.874023" fill-rule="evenodd"/><path fill="#000000" fill-opacity="0.0" d="m293.21487 268.1076c38.173218 0 57.259827 -16.929138 76.346466 -33.858276c19.086609 -16.929123 38.173218 -33.85826 76.346436 -33.85826" fill-rule="evenodd"/><path stroke="#595959" stroke-width="1.0" stroke-linejoin="round" stroke-linecap="butt" d="m293.21487 268.1076c38.173218 0 57.259827 -16.929123 76.346436 -33.85826c9.543304 -8.464569 19.086609 -16.929138 31.015747 -23.277557c5.964569 -3.1742096 12.525604 -5.819397 19.981293 -7.6710205c3.7278748 -0.92581177 7.6793823 -1.6532288 11.891876 -2.1491852c2.1062012 -0.2480011 4.27771 -0.4381256 6.519043 -0.56625366c1.120697 -0.0640564 2.2588806 -0.11262512 3.4150696 -0.14515686l0.09667969 -0.002380371" fill-rule="evenodd"/><path fill="#595959" stroke="#595959" stroke-width="1.0" stroke-linecap="butt" d="m442.481 200.43777l-1.1091309 1.1398163l3.0741577 -1.1665955l-3.104828 -1.082367z" fill-rule="evenodd"/><path fill="#ffffff" d="m344.27005 235.60818l24.75589 0l0 15.874008l-24.75589 0z" fill-rule="evenodd"/><path fill="#cbcbcb" d="m369.02594 235.60818l5.2913513 -5.291336l0 15.874008l-5.2913513 5.291336z" fill-rule="evenodd"/><path fill="#ffffff" d="m344.27005 235.60818l5.291321 -5.291336l24.75592 0l-5.2913513 5.291336z" fill-rule="evenodd"/><path fill="#000000" fill-opacity="0.0" d="m344.27005 235.60818l5.291321 -5.291336l24.75592 0l0 15.874008l-5.2913513 5.291336l-24.75589 0zm0 0l24.75589 0l5.2913513 -5.291336m-5.2913513 5.291336l0 15.874008" fill-rule="evenodd"/><path stroke="#666666" stroke-width="1.0" stroke-linejoin="round" stroke-linecap="butt" d="m344.27005 235.60818l5.291321 -5.291336l24.75592 0l0 15.874008l-5.2913513 5.291336l-24.75589 0zm0 0l24.75589 0l5.2913513 -5.291336m-5.2913513 5.291336l0 15.874008" fill-rule="evenodd"/><path fill="#ffffff" d="m742.90155 282.1181l-78.43176 0c8.663391 0 15.686401 -13.694672 15.686401 -30.587921c0 -16.89325 -7.0230103 -30.587921 -15.686401 -30.587921l78.43176 0l0 0c8.66333 0 15.686401 13.694672 15.686401 30.587921c0 16.89325 -7.0230713 30.587921 -15.686401 30.587921z" fill-rule="evenodd"/><path stroke="#595959" stroke-width="1.0" stroke-linejoin="round" stroke-linecap="butt" d="m742.90155 282.1181l-78.43176 0c8.663391 0 15.686401 -13.694672 15.686401 -30.587921c0 -16.89325 -7.0230103 -30.587921 -15.686401 -30.587921l78.43176 0l0 0c8.66333 0 15.686401 13.694672 15.686401 30.587921c0 16.89325 -7.0230713 30.587921 -15.686401 30.587921z" fill-rule="evenodd"/><path fill="#000000" fill-opacity="0.0" d="m673.9089 229.67715l137.82678 0l0 43.08661l-137.82678 0z" fill-rule="evenodd"/><path fill="#434343" d="m688.07294 250.34966l1.4375 -0.125q0.09375 0.859375 0.46875 1.421875q0.375 0.546875 1.15625 0.890625q0.78125 0.328125 1.75 0.328125q0.875 0 1.53125 -0.25q0.671875 -0.265625 0.984375 -0.703125q0.328125 -0.453125 0.328125 -0.984375q0 -0.546875 -0.3125 -0.9375q-0.3125 -0.40625 -1.03125 -0.6875q-0.453125 -0.171875 -2.03125 -0.546875q-1.578125 -0.390625 -2.21875 -0.71875q-0.8125 -0.4375 -1.21875 -1.0625q-0.40625 -0.640625 -0.40625 -1.4375q0 -0.859375 0.484375 -1.609375q0.5 -0.765625 1.4375 -1.15625q0.953125 -0.390625 2.109375 -0.390625q1.28125 0 2.25 0.421875q0.96875 0.40625 1.484375 1.203125q0.53125 0.796875 0.578125 1.796875l-1.453125 0.109375q-0.125 -1.078125 -0.796875 -1.625q-0.671875 -0.5625 -2.0 -0.5625q-1.375 0 -2.0 0.5q-0.625 0.5 -0.625 1.21875q0 0.609375 0.4375 1.015625q0.4375 0.390625 2.28125 0.8125q1.859375 0.421875 2.546875 0.734375q1.0 0.453125 1.46875 1.171875q0.484375 0.703125 0.484375 1.625q0 0.90625 -0.53125 1.71875q-0.515625 0.8125 -1.5 1.265625q-0.984375 0.453125 -2.203125 0.453125q-1.5625 0 -2.609375 -0.453125q-1.046875 -0.46875 -1.65625 -1.375q-0.59375 -0.90625 -0.625 -2.0625zm11.015625 3.6875l0 -8.296875l1.265625 0l0 1.171875q0.90625 -1.359375 2.640625 -1.359375q0.75 0 1.375 0.265625q0.625 0.265625 0.9375 0.703125q0.3125 0.4375 0.4375 1.046875q0.078125 0.390625 0.078125 1.359375l0 5.109375l-1.40625 0l0 -5.046875q0 -0.859375 -0.171875 -1.28125q-0.15625 -0.4375 -0.578125 -0.6875q-0.40625 -0.25 -0.96875 -0.25q-0.90625 0 -1.5625 0.578125q-0.640625 0.5625 -0.640625 2.15625l0 4.53125l-1.40625 0zm14.3046875 -1.03125q-0.78125 0.671875 -1.5 0.953125q-0.71875 0.265625 -1.546875 0.265625q-1.375 0 -2.109375 -0.671875q-0.734375 -0.671875 -0.734375 -1.703125q0 -0.609375 0.28125 -1.109375q0.28125 -0.515625 0.71875 -0.8125q0.453125 -0.3125 1.015625 -0.46875q0.421875 -0.109375 1.25 -0.203125q1.703125 -0.203125 2.515625 -0.484375q0 -0.296875 0 -0.375q0 -0.859375 -0.390625 -1.203125q-0.546875 -0.484375 -1.609375 -0.484375q-0.984375 0 -1.46875 0.359375q-0.46875 0.34375 -0.6875 1.21875l-1.375 -0.1875q0.1875 -0.875 0.609375 -1.421875q0.4375 -0.546875 1.25 -0.828125q0.8125 -0.296875 1.875 -0.296875q1.0625 0 1.71875 0.25q0.671875 0.25 0.984375 0.625q0.3125 0.375 0.4375 0.953125q0.078125 0.359375 0.078125 1.296875l0 1.875q0 1.96875 0.078125 2.484375q0.09375 0.515625 0.359375 1.0l-1.46875 0q-0.21875 -0.4375 -0.28125 -1.03125zm-0.109375 -3.140625q-0.765625 0.3125 -2.296875 0.53125q-0.875 0.125 -1.234375 0.28125q-0.359375 0.15625 -0.5625 0.46875q-0.1875 0.296875 -0.1875 0.65625q0 0.5625 0.421875 0.9375q0.4375 0.375 1.25 0.375q0.8125 0 1.4375 -0.34375q0.640625 -0.359375 0.9375 -0.984375q0.234375 -0.46875 0.234375 -1.40625l0 -0.515625zm3.6015625 7.3593903l0 -11.48439l1.28125 0l0 1.078125q0.453125 -0.640625 1.015625 -0.953125q0.578125 -0.3125 1.390625 -0.3125q1.0625 0 1.875 0.546875q0.8125 0.546875 1.21875 1.546875q0.421875 0.984375 0.421875 2.171875q0 1.28125 -0.46875 2.296875q-0.453125 1.015625 -1.328125 1.5625q-0.859375 0.546875 -1.828125 0.546875q-0.703125 0 -1.265625 -0.296875q-0.546875 -0.296875 -0.90625 -0.75l0 4.0468903l-1.40625 0zm1.265625 -7.2968903q0 1.609375 0.640625 2.375q0.65625 0.765625 1.578125 0.765625q0.9375 0 1.609375 -0.796875q0.671875 -0.796875 0.671875 -2.453125q0 -1.59375 -0.65625 -2.375q-0.65625 -0.796875 -1.5625 -0.796875q-0.890625 0 -1.59375 0.84375q-0.6875 0.84375 -0.6875 2.4375z" fill-rule="nonzero"/><path fill="#000000" fill-opacity="0.0" d="m532.20807 199.8189c35.425232 0 53.137817 12.850388 70.8504 25.70079c17.712585 12.850388 35.42517 25.700775 70.8504 25.700775" fill-rule="evenodd"/><path stroke="#595959" stroke-width="1.0" stroke-linejoin="round" stroke-linecap="butt" d="m532.20807 199.8189c35.425232 0 53.137817 12.850403 70.8504 25.70079c8.856323 6.4252014 17.712585 12.850388 28.782959 17.669296c5.5352173 2.409439 11.623901 4.4173126 18.542908 5.82283c3.4594727 0.7027588 7.126526 1.2549286 11.035767 1.6313934c1.9545898 0.18824768 3.9697876 0.3325653 6.0498047 0.42980957c0.52001953 0.02432251 1.0440063 0.045684814 1.5722656 0.064086914c0.2640381 0.009185791 0.5291748 0.01763916 0.7953491 0.025314331l0.64453125 0.016723633" fill-rule="evenodd"/><path fill="#595959" stroke="#595959" stroke-width="1.0" stroke-linecap="butt" d="m670.48206 251.17914l-1.1380615 1.1109467l3.1030884 -1.0872498l-3.0759888 -1.1617584z" fill-rule="evenodd"/><path fill="#000000" fill-opacity="0.0" d="m757.44617 253.2441c22.417358 0 33.626038 2.5196838 44.834656 5.039383c11.208679 2.5196838 22.417358 5.0393677 44.834656 5.0393677" fill-rule="evenodd"/><path stroke="#595959" stroke-width="1.0" stroke-linejoin="round" stroke-linecap="butt" d="m757.44617 253.2441c22.417358 0 33.626038 2.5196838 44.834656 5.039383c5.60437 1.2598267 11.208679 2.5196838 18.214111 3.4645386c3.5026855 0.47244263 7.355652 0.8661499 11.73407 1.1417542c2.189148 0.13778687 4.5097046 0.24606323 6.9835205 0.31988525c1.2368774 0.036895752 2.512024 0.06518555 3.828308 0.08425903l0.64764404 0.0069885254" fill-rule="evenodd"/><path fill="#595959" stroke="#595959" stroke-width="1.0" stroke-linecap="butt" d="m843.6885 263.3009l-1.1317749 1.1173706l3.0969238 -1.1047974l-3.0825195 -1.1443481z" fill-rule="evenodd"/><path fill="#ffffff" d="m595.6941 220.57889l24.75592 0l0 15.874023l-24.75592 0z" fill-rule="evenodd"/><path fill="#cbcbcb" d="m620.45 220.57889l5.291321 -5.291336l0 15.874023l-5.291321 5.291336z" fill-rule="evenodd"/><path fill="#ffffff" d="m595.6941 220.57889l5.291382 -5.291336l24.75586 0l-5.291321 5.291336z" fill-rule="evenodd"/><path fill="#000000" fill-opacity="0.0" d="m595.6941 220.57889l5.291382 -5.291336l24.75586 0l0 15.874023l-5.291321 5.291336l-24.75592 0zm0 0l24.75592 0l5.291321 -5.291336m-5.291321 5.291336l0 15.874023" fill-rule="evenodd"/><path stroke="#666666" stroke-width="1.0" stroke-linejoin="round" stroke-linecap="butt" d="m595.6941 220.57889l5.291382 -5.291336l24.75586 0l0 15.874023l-5.291321 5.291336l-24.75592 0zm0 0l24.75592 0l5.291321 -5.291336m-5.291321 5.291336l0 15.874023" fill-rule="evenodd"/><path fill="#000000" fill-opacity="0.0" d="m847.1155 220.94226l74.72443 0l0 84.76114l-74.72443 0z" fill-rule="evenodd"/><path fill="#000000" fill-opacity="0.0" d="m856.45605 220.94226l0 84.76114m-9.340576 -74.166l74.72443 0" fill-rule="evenodd"/><path fill="#000000" fill-opacity="0.0" d="m847.1155 220.94226l74.72443 0l0 84.76114l-74.72443 0z" fill-rule="evenodd"/><path stroke="#434343" stroke-width="1.0" stroke-linejoin="round" stroke-linecap="butt" d="m856.45605 220.94226l0 84.76114m-9.340576 -74.166l74.72443 0" fill-rule="evenodd"/><path stroke="#434343" stroke-width="1.0" stroke-linejoin="round" stroke-linecap="butt" d="m847.1155 220.94226l74.72443 0l0 84.76114l-74.72443 0z" fill-rule="evenodd"/><path fill="#000000" fill-opacity="0.0" d="m847.1155 91.93807l74.72443 0l0 84.76116l-74.72443 0z" fill-rule="evenodd"/><path fill="#000000" fill-opacity="0.0" d="m856.45605 91.93807l0 84.76116m-9.340576 -74.166016l74.72443 0" fill-rule="evenodd"/><path fill="#000000" fill-opacity="0.0" d="m847.1155 91.93807l74.72443 0l0 84.76116l-74.72443 0z" fill-rule="evenodd"/><path stroke="#434343" stroke-width="1.0" stroke-linejoin="round" stroke-linecap="butt" d="m856.45605 91.93807l0 84.76116m-9.340576 -74.166016l74.72443 0" fill-rule="evenodd"/><path stroke="#434343" stroke-width="1.0" stroke-linejoin="round" stroke-linecap="butt" d="m847.1155 91.93807l74.72443 0l0 84.76116l-74.72443 0z" fill-rule="evenodd"/></g></svg>
