<svg width="507" height="224" viewBox="0 0 507 224" fill="none" xmlns="http://www.w3.org/2000/svg">
<path d="M198.828 112.87C201.266 109.508 204.586 106.777 208.788 104.675C213.075 102.49 217.824 101.397 223.035 101.397C229.171 101.397 234.718 102.868 239.677 105.81C244.636 108.752 248.544 112.954 251.402 118.418C254.26 123.797 255.689 129.975 255.689 136.951C255.689 143.927 254.26 150.189 251.402 155.736C248.544 161.199 244.594 165.486 239.551 168.596C234.592 171.622 229.087 173.135 223.035 173.135C217.656 173.135 212.865 172.084 208.662 169.983C204.544 167.882 201.266 165.192 198.828 161.914V172H184.456V78.7038H198.828V112.87ZM241.064 136.951C241.064 132.16 240.055 128.042 238.038 124.595C236.105 121.065 233.499 118.418 230.221 116.653C227.027 114.804 223.581 113.879 219.883 113.879C216.269 113.879 212.823 114.804 209.545 116.653C206.351 118.502 203.745 121.191 201.728 124.722C199.795 128.252 198.828 132.412 198.828 137.203C198.828 141.994 199.795 146.196 201.728 149.811C203.745 153.341 206.351 156.03 209.545 157.879C212.823 159.729 216.269 160.653 219.883 160.653C223.581 160.653 227.027 159.729 230.221 157.879C233.499 155.946 236.105 153.173 238.038 149.558C240.055 145.944 241.064 141.742 241.064 136.951ZM261.329 136.951C261.329 129.975 262.757 123.797 265.615 118.418C268.557 113.038 272.507 108.878 277.466 105.936C282.509 102.91 288.057 101.397 294.108 101.397C299.572 101.397 304.32 102.49 308.355 104.675C312.473 106.777 315.751 109.424 318.189 112.618V102.532H332.688V172H318.189V161.662C315.751 164.94 312.431 167.671 308.229 169.857C304.026 172.042 299.235 173.135 293.856 173.135C287.889 173.135 282.425 171.622 277.466 168.596C272.507 165.486 268.557 161.199 265.615 155.736C262.757 150.189 261.329 143.927 261.329 136.951ZM318.189 137.203C318.189 132.412 317.18 128.252 315.163 124.722C313.23 121.191 310.666 118.502 307.472 116.653C304.278 114.804 300.832 113.879 297.134 113.879C293.436 113.879 289.99 114.804 286.796 116.653C283.602 118.418 280.996 121.065 278.979 124.595C277.046 128.042 276.079 132.16 276.079 136.951C276.079 141.742 277.046 145.944 278.979 149.558C280.996 153.173 283.602 155.946 286.796 157.879C290.074 159.729 293.52 160.653 297.134 160.653C300.832 160.653 304.278 159.729 307.472 157.879C310.666 156.03 313.23 153.341 315.163 149.811C317.18 146.196 318.189 141.994 318.189 137.203ZM372.998 173.135C367.535 173.135 362.618 172.168 358.247 170.235C353.961 168.218 350.557 165.528 348.035 162.166C345.514 158.72 344.169 154.896 344.001 150.693H358.878C359.13 153.635 360.517 156.114 363.038 158.132C365.644 160.065 368.88 161.031 372.746 161.031C376.781 161.031 379.89 160.275 382.076 158.762C384.345 157.165 385.48 155.148 385.48 152.71C385.48 150.105 384.219 148.172 381.698 146.911C379.26 145.65 375.352 144.263 369.973 142.75C364.761 141.322 360.517 139.935 357.239 138.59C353.961 137.245 351.103 135.186 348.666 132.412C346.312 129.638 345.136 125.982 345.136 121.444C345.136 117.745 346.228 114.383 348.414 111.357C350.599 108.248 353.709 105.81 357.743 104.045C361.862 102.28 366.568 101.397 371.864 101.397C379.764 101.397 386.11 103.415 390.901 107.449C395.776 111.399 398.382 116.821 398.718 123.713H384.345C384.093 120.603 382.832 118.124 380.563 116.274C378.294 114.425 375.226 113.501 371.359 113.501C367.577 113.501 364.677 114.215 362.66 115.644C360.643 117.073 359.634 118.964 359.634 121.317C359.634 123.167 360.307 124.722 361.652 125.982C362.996 127.243 364.635 128.252 366.568 129.008C368.502 129.681 371.359 130.563 375.142 131.656C380.185 133.001 384.303 134.387 387.497 135.816C390.775 137.161 393.591 139.178 395.944 141.868C398.298 144.557 399.516 148.13 399.6 152.584C399.6 156.535 398.508 160.065 396.322 163.175C394.137 166.285 391.027 168.722 386.993 170.487C383.042 172.252 378.378 173.135 372.998 173.135ZM418.66 93.3286C416.055 93.3286 413.87 92.4461 412.105 90.681C410.339 88.9159 409.457 86.7306 409.457 84.1251C409.457 81.5195 410.339 79.3342 412.105 77.5691C413.87 75.804 416.055 74.9215 418.66 74.9215C421.182 74.9215 423.325 75.804 425.09 77.5691C426.855 79.3342 427.738 81.5195 427.738 84.1251C427.738 86.7306 426.855 88.9159 425.09 90.681C423.325 92.4461 421.182 93.3286 418.66 93.3286ZM425.721 102.532V172H411.348V102.532H425.721ZM466.024 173.135C460.56 173.135 455.643 172.168 451.273 170.235C446.986 168.218 443.582 165.528 441.061 162.166C438.539 158.72 437.194 154.896 437.026 150.693H451.903C452.155 153.635 453.542 156.114 456.064 158.132C458.669 160.065 461.905 161.031 465.772 161.031C469.806 161.031 472.916 160.275 475.101 158.762C477.371 157.165 478.505 155.148 478.505 152.71C478.505 150.105 477.244 148.172 474.723 146.911C472.285 145.65 468.377 144.263 462.998 142.75C457.787 141.322 453.542 139.935 450.264 138.59C446.986 137.245 444.128 135.186 441.691 132.412C439.338 129.638 438.161 125.982 438.161 121.444C438.161 117.745 439.254 114.383 441.439 111.357C443.624 108.248 446.734 105.81 450.768 104.045C454.887 102.28 459.594 101.397 464.889 101.397C472.79 101.397 479.136 103.415 483.926 107.449C488.801 111.399 491.407 116.821 491.743 123.713H477.371C477.118 120.603 475.858 118.124 473.588 116.274C471.319 114.425 468.251 113.501 464.385 113.501C460.602 113.501 457.703 114.215 455.685 115.644C453.668 117.073 452.66 118.964 452.66 121.317C452.66 123.167 453.332 124.722 454.677 125.982C456.022 127.243 457.661 128.252 459.594 129.008C461.527 129.681 464.385 130.563 468.167 131.656C473.21 133.001 477.328 134.387 480.522 135.816C483.8 137.161 486.616 139.178 488.969 141.868C491.323 144.557 492.542 148.13 492.626 152.584C492.626 156.535 491.533 160.065 489.348 163.175C487.162 166.285 484.053 168.722 480.018 170.487C476.068 172.252 471.403 173.135 466.024 173.135Z" fill="#28364D"/>
<path d="M43.7306 78.6755V2.68824C43.7306 0.651091 41.5505 -0.643706 39.7617 0.331021L3.50002 20.1093C1.34259 21.2849 0 23.5454 0 26.0023V104.479L43.7306 78.6755Z" fill="#00DBCD"/>
<path fill-rule="evenodd" clip-rule="evenodd" d="M0.00390625 104.5L43.7219 78.5449L43.3863 152.207L1.38279 183.323C0.510802 182.215 0.00390625 180.836 0.00390625 179.365V104.5Z" fill="#00DBCD"/>
<path d="M119.236 172.694L43.0107 152.089L1.35938 183.12C2.23011 184.227 3.46489 185.063 4.92254 185.45L74.9237 203.835C76.9631 204.366 79.1407 203.934 80.802 202.668L117.308 174.898C118.073 174.309 118.803 173.518 119.236 172.694Z" fill="#5779FF"/>
<g style="mix-blend-mode:multiply">
<path d="M118.653 96.02L78.005 122.652L77.043 204.094C78.1188 203.909 79.496 203.603 80.9678 202.622L117.764 174.657C119.376 173.422 120.23 172.041 120.232 170.046L120.232 100.22L120.232 100.213C120.23 98.6328 119.644 97.1624 118.653 96.02Z" fill="#FC7E7E"/>
</g>
<g style="mix-blend-mode:multiply">
<path fill-rule="evenodd" clip-rule="evenodd" d="M0 104.5L43.7235 78.5449L114.957 93.7186L114.961 93.7196C116.447 94.037 117.726 94.8182 118.652 95.8858L77.8491 122.753L0 104.5Z" fill="#FFCC00"/>
</g>
<path fill-rule="evenodd" clip-rule="evenodd" d="M43.4226 112.097L43.5775 78.0938L2.30469 102.539L43.4226 112.097Z" fill="#00AF00"/>
</svg>
