<svg width="3439" height="717" viewBox="0 0 3439 717" fill="none" xmlns="http://www.w3.org/2000/svg">
<path d="M197 488.5L561 207.5" stroke="#BEBCC5"/>
<path d="M394 17L388.226 27H399.774L394 17ZM394 336H393V336.758L393.73 336.963L394 336ZM704.5 423L696.429 414.743L693.313 425.861L704.5 423ZM393 26V336H395V26H393ZM696.104 419.609L394.27 335.037L393.73 336.963L695.564 421.535L696.104 419.609Z" fill="black"/>
<path d="M688.676 434.348L680.756 453.692H678.5L681.092 447.356L675.788 434.348H678.212L682.34 445.004L686.42 434.348H688.676Z" fill="black"/>
<path d="M376.212 51.5L373.092 46.604L370.092 51.5H367.812L372.06 44.972L367.812 38.348H370.284L373.404 43.22L376.38 38.348H378.66L374.436 44.852L378.684 51.5H376.212Z" fill="black"/>
<g style="mix-blend-mode:multiply">
<path d="M509.5 547.5L0 380L315.5 190.5L753.5 296L509.5 547.5Z" fill="#505AE0" fill-opacity="0.3"/>
</g>
<g style="mix-blend-mode:multiply">
<path d="M530 0L222.5 167.5L245.5 706.5L515.5 454L530 0Z" fill="#33CC99" fill-opacity="0.3"/>
</g>
<path d="M1092 488.5L1456 207.5" stroke="#BEBCC5"/>
<path d="M1289 17L1283.23 27H1294.77L1289 17ZM1289 336H1288V336.758L1288.73 336.963L1289 336ZM1599.5 423L1591.43 414.743L1588.31 425.861L1599.5 423ZM1288 26V336H1290V26H1288ZM1591.1 419.609L1289.27 335.037L1288.73 336.963L1590.56 421.535L1591.1 419.609Z" fill="black"/>
<path d="M1583.68 434.348L1575.76 453.692H1573.5L1576.09 447.356L1570.79 434.348H1573.21L1577.34 445.004L1581.42 434.348H1583.68Z" fill="black"/>
<path d="M1271.21 51.5L1268.09 46.604L1265.09 51.5H1262.81L1267.06 44.972L1262.81 38.348H1265.28L1268.4 43.22L1271.38 38.348H1273.66L1269.44 44.852L1273.68 51.5H1271.21Z" fill="black"/>
<g style="mix-blend-mode:multiply">
<path d="M1403.5 547L894 379.5L1209.5 190L1647.5 295.5L1403.5 547Z" fill="#505AE0" fill-opacity="0.3"/>
</g>
<g style="mix-blend-mode:multiply">
<path d="M1421.5 447L912 279.5L1227.5 90L1665.5 195.5L1421.5 447Z" fill="#FFCC00" fill-opacity="0.3"/>
</g>
<g style="mix-blend-mode:multiply">
<path d="M1425 0L1117.5 167.5L1140.5 706.5L1410.5 454L1425 0Z" fill="#33CC99" fill-opacity="0.3"/>
</g>
<g style="mix-blend-mode:multiply">
<path d="M1508.5 10L1201 177.5L1224 716.5L1494 464L1508.5 10Z" fill="#F46960" fill-opacity="0.3"/>
</g>
<path d="M2933 497L3297 216" stroke="#BEBCC5"/>
<path d="M3128 25L3122.23 35H3133.77L3128 25ZM3128 344H3127V344.758L3127.73 344.963L3128 344ZM3438.5 431L3430.43 422.743L3427.31 433.861L3438.5 431ZM3127 34V344H3129V34H3127ZM3430.1 427.609L3128.27 343.037L3127.73 344.963L3429.56 429.535L3430.1 427.609Z" fill="black"/>
<path d="M3422.68 442.348L3414.76 461.692H3412.5L3415.09 455.356L3409.79 442.348H3412.21L3416.34 453.004L3420.42 442.348H3422.68Z" fill="black"/>
<path d="M3110.21 59.5L3107.09 54.604L3104.09 59.5H3101.81L3106.06 52.972L3101.81 46.348H3104.28L3107.4 51.22L3110.38 46.348H3112.66L3108.44 52.852L3112.68 59.5H3110.21Z" fill="black"/>
<path d="M3129 345L3129.5 232L3069 269V391.5L3129 345Z" fill="#33CC99"/>
<path d="M3069 392L3129 345L3243 377L3185 423.5L3069 392Z" fill="#505AE0"/>
<path d="M3129.5 232L3129 109L3069 142V269L3129.5 232Z" fill="#33CC99"/>
<g style="mix-blend-mode:multiply">
<path d="M3243.5 256L3129.5 232L3069 269L3185 297.5L3243.5 256Z" fill="#FFCC00"/>
</g>
<path d="M2049 488.5L2413 207.5" stroke="#BEBCC5"/>
<path d="M2246 17L2240.23 27H2251.77L2246 17ZM2246 336H2245V336.758L2245.73 336.963L2246 336ZM2556.5 423L2548.43 414.743L2545.31 425.861L2556.5 423ZM2245 26V336H2247V26H2245ZM2548.1 419.609L2246.27 335.037L2245.73 336.963L2547.56 421.535L2548.1 419.609Z" fill="black"/>
<path d="M2540.68 434.348L2532.76 453.692H2530.5L2533.09 447.356L2527.79 434.348H2530.21L2534.34 445.004L2538.42 434.348H2540.68Z" fill="black"/>
<path d="M2228.21 51.5L2225.09 46.604L2222.09 51.5H2219.81L2224.06 44.972L2219.81 38.348H2222.28L2225.4 43.22L2228.38 38.348H2230.66L2226.44 44.852L2230.68 51.5H2228.21Z" fill="black"/>
<g style="mix-blend-mode:multiply">
<path d="M2361.5 547.5L1852 380L2167.5 190.5L2605.5 296L2361.5 547.5Z" fill="#505AE0" fill-opacity="0.3"/>
</g>
<g style="mix-blend-mode:multiply">
<path d="M2378.5 447L1869 279.5L2184.5 90L2622.5 195.5L2378.5 447Z" fill="#FFCC00" fill-opacity="0.3"/>
</g>
<g style="mix-blend-mode:multiply">
<path d="M2382 0L2074.5 167.5L2097.5 706.5L2367.5 454L2382 0Z" fill="#33CC99" fill-opacity="0.3"/>
</g>
<path d="M2247 337L2247.5 224L2187 261V383.5L2247 337Z" fill="#33CC99"/>
<path d="M2187 384L2247 337L2361 369L2303 415.5L2187 384Z" fill="#505AE0"/>
<path d="M2247.5 224L2247 101L2187 134V261L2247.5 224Z" fill="#33CC99"/>
<g style="mix-blend-mode:multiply">
<path d="M2361.5 248L2247.5 224L2187 261L2303 289.5L2361.5 248Z" fill="#FFCC00"/>
</g>
<g style="mix-blend-mode:multiply">
<path d="M2465.5 10L2158 177.5L2181 716.5L2451 464L2465.5 10Z" fill="#F46960" fill-opacity="0.3"/>
</g>
<g style="mix-blend-mode:multiply">
<path d="M2303 415.5V289.5L2361.5 248L2361 369L2303 415.5Z" fill="#F46960"/>
</g>
<g style="mix-blend-mode:multiply">
<path d="M3185 423.5V297.5L3243.5 256L3243 377L3185 423.5Z" fill="#F46960"/>
</g>
</svg>
