<svg width="205" height="48" viewBox="0 0 205 48" fill="none" xmlns="http://www.w3.org/2000/svg">
<path d="M11.182 45.5131V32.5654L0 38.8431L11.182 45.5131Z" fill="#141414"/>
<path d="M33.154 20.2061L10.5938 7.25852L23.149 0L45.9055 12.9476V38.8429L33.154 46.2976V20.2061Z" fill="#141414"/>
<path d="M17.0675 29.2303L0.979555 20.2096L12.0913 13.7324L28.3191 22.842V41.3833L17.0675 48.0001V29.2303Z" fill="#141414"/>
<path d="M71.2656 35.9996V13.5996H80.0016C81.9643 13.5996 83.639 13.9089 85.0256 14.5276C86.4123 15.1463 87.479 16.0423 88.2256 17.2156C88.9723 18.3889 89.3456 19.7863 89.3456 21.4076C89.3456 23.0289 88.9723 24.4263 88.2256 25.5996C87.479 26.7516 86.4123 27.6476 85.0256 28.2876C83.639 28.9063 81.9643 29.2156 80.0016 29.2156H73.0256L74.4656 27.7116V35.9996H71.2656ZM74.4656 28.0316L73.0256 26.4316H79.9056C81.9536 26.4316 83.5003 25.9943 84.5456 25.1196C85.6123 24.2449 86.1456 23.0076 86.1456 21.4076C86.1456 19.8076 85.6123 18.5703 84.5456 17.6956C83.5003 16.8209 81.9536 16.3836 79.9056 16.3836H73.0256L74.4656 14.7836V28.0316Z" fill="black"/>
<path d="M103.331 35.9996V32.4156L103.171 31.7436V25.6316C103.171 24.3303 102.787 23.3276 102.019 22.6236C101.272 21.8983 100.141 21.5356 98.6266 21.5356C97.624 21.5356 96.6426 21.7063 95.6826 22.0476C94.7226 22.3676 93.912 22.8049 93.2506 23.3596L91.9706 21.0556C92.8453 20.3516 93.8906 19.8183 95.1066 19.4556C96.344 19.0716 97.6346 18.8796 98.9786 18.8796C101.304 18.8796 103.096 19.4449 104.355 20.5756C105.613 21.7063 106.243 23.4343 106.243 25.7596V35.9996H103.331ZM97.7626 36.1916C96.504 36.1916 95.3946 35.9783 94.4346 35.5516C93.496 35.1249 92.7706 34.5383 92.2586 33.7916C91.7466 33.0236 91.4906 32.1596 91.4906 31.1996C91.4906 30.2823 91.704 29.4503 92.1306 28.7036C92.5786 27.9569 93.2933 27.3596 94.2746 26.9116C95.2773 26.4636 96.6213 26.2396 98.3066 26.2396H103.683V28.4476H98.4346C96.8986 28.4476 95.864 28.7036 95.3306 29.2156C94.7973 29.7276 94.5306 30.3463 94.5306 31.0716C94.5306 31.9036 94.8613 32.5756 95.5226 33.0876C96.184 33.5783 97.1013 33.8236 98.2746 33.8236C99.4266 33.8236 100.429 33.5676 101.283 33.0556C102.157 32.5436 102.787 31.7969 103.171 30.8156L103.779 32.9276C103.373 33.9303 102.659 34.7303 101.635 35.3276C100.611 35.9036 99.32 36.1916 97.7626 36.1916Z" fill="black"/>
<path d="M117.112 36.1916C115.405 36.1916 114.082 35.7329 113.144 34.8156C112.205 33.8983 111.736 32.5863 111.736 30.8796V15.3276H114.808V30.7516C114.808 31.6689 115.032 32.3729 115.48 32.8636C115.949 33.3543 116.61 33.5996 117.464 33.5996C118.424 33.5996 119.224 33.3329 119.864 32.7996L120.824 35.0076C120.354 35.4129 119.789 35.7116 119.128 35.9036C118.488 36.0956 117.816 36.1916 117.112 36.1916ZM108.856 21.5676V19.0396H119.672V21.5676H108.856Z" fill="black"/>
<path d="M129.315 36.1916C127.609 36.1916 126.286 35.7329 125.347 34.8156C124.409 33.8983 123.939 32.5863 123.939 30.8796V15.3276H127.011V30.7516C127.011 31.6689 127.235 32.3729 127.683 32.8636C128.153 33.3543 128.814 33.5996 129.667 33.5996C130.627 33.5996 131.427 33.3329 132.067 32.7996L133.027 35.0076C132.558 35.4129 131.993 35.7116 131.331 35.9036C130.691 36.0956 130.019 36.1916 129.315 36.1916ZM121.059 21.5676V19.0396H131.875V21.5676H121.059Z" fill="black"/>
<path d="M143.091 36.1916C141.278 36.1916 139.678 35.8183 138.291 35.0716C136.926 34.3249 135.859 33.3009 135.091 31.9996C134.344 30.6983 133.971 29.2049 133.971 27.5196C133.971 25.8343 134.334 24.3409 135.059 23.0396C135.806 21.7383 136.819 20.7249 138.099 19.9996C139.4 19.2529 140.862 18.8796 142.483 18.8796C144.126 18.8796 145.576 19.2423 146.835 19.9676C148.094 20.6929 149.075 21.7169 149.779 23.0396C150.504 24.3409 150.867 25.8663 150.867 27.6156C150.867 27.7436 150.856 27.8929 150.835 28.0636C150.835 28.2343 150.824 28.3943 150.803 28.5436H136.371V26.3356H149.203L147.955 27.1036C147.976 26.0156 147.752 25.0449 147.283 24.1916C146.814 23.3383 146.163 22.6769 145.331 22.2076C144.52 21.7169 143.571 21.4716 142.483 21.4716C141.416 21.4716 140.467 21.7169 139.635 22.2076C138.803 22.6769 138.152 23.3489 137.683 24.2236C137.214 25.0769 136.979 26.0583 136.979 27.1676V27.6796C136.979 28.8103 137.235 29.8236 137.747 30.7196C138.28 31.5943 139.016 32.2769 139.955 32.7676C140.894 33.2583 141.971 33.5036 143.187 33.5036C144.19 33.5036 145.096 33.3329 145.907 32.9916C146.739 32.6503 147.464 32.1383 148.083 31.4556L149.779 33.4396C149.011 34.3356 148.051 35.0183 146.899 35.4876C145.768 35.9569 144.499 36.1916 143.091 36.1916Z" fill="black"/>
<path d="M154.493 35.9996V19.0396H157.437V23.6476L157.149 22.4956C157.618 21.3223 158.407 20.4263 159.517 19.8076C160.626 19.1889 161.991 18.8796 163.613 18.8796V21.8556C163.485 21.8343 163.357 21.8236 163.229 21.8236C163.122 21.8236 163.015 21.8236 162.909 21.8236C161.266 21.8236 159.965 22.3143 159.005 23.2956C158.045 24.2769 157.565 25.6956 157.565 27.5516V35.9996H154.493Z" fill="black"/>
<path d="M175.815 18.8796C177.202 18.8796 178.418 19.1463 179.463 19.6796C180.53 20.2129 181.362 21.0236 181.959 22.1116C182.556 23.1996 182.855 24.5756 182.855 26.2396V35.9996H179.783V26.5916C179.783 24.9489 179.378 23.7116 178.567 22.8796C177.778 22.0476 176.658 21.6316 175.207 21.6316C174.119 21.6316 173.17 21.8449 172.359 22.2716C171.548 22.6983 170.919 23.3276 170.471 24.1596C170.044 24.9916 169.831 26.0263 169.831 27.2636V35.9996H166.759V19.0396H169.703V23.6156L169.223 22.3996C169.778 21.2903 170.631 20.4263 171.783 19.8076C172.935 19.1889 174.279 18.8796 175.815 18.8796Z" fill="black"/>
<path d="M192.764 36.1916C191.356 36.1916 190.012 35.9996 188.732 35.6156C187.473 35.2316 186.481 34.7623 185.756 34.2076L187.036 31.7756C187.761 32.2663 188.657 32.6823 189.724 33.0236C190.791 33.3649 191.879 33.5356 192.988 33.5356C194.417 33.5356 195.441 33.3329 196.06 32.9276C196.7 32.5223 197.02 31.9569 197.02 31.2316C197.02 30.6983 196.828 30.2823 196.444 29.9836C196.06 29.6849 195.548 29.4609 194.908 29.3116C194.289 29.1623 193.596 29.0343 192.828 28.9276C192.06 28.7996 191.292 28.6503 190.524 28.4796C189.756 28.2876 189.052 28.0316 188.412 27.7116C187.772 27.3703 187.26 26.9116 186.876 26.3356C186.492 25.7383 186.3 24.9489 186.3 23.9676C186.3 22.9436 186.588 22.0476 187.164 21.2796C187.74 20.5116 188.551 19.9249 189.596 19.5196C190.663 19.0929 191.921 18.8796 193.372 18.8796C194.481 18.8796 195.601 19.0183 196.732 19.2956C197.884 19.5516 198.823 19.9249 199.548 20.4156L198.236 22.8476C197.468 22.3356 196.668 21.9836 195.836 21.7916C195.004 21.5996 194.172 21.5036 193.34 21.5036C191.996 21.5036 190.993 21.7276 190.332 22.1756C189.671 22.6023 189.34 23.1569 189.34 23.8396C189.34 24.4156 189.532 24.8636 189.916 25.1836C190.321 25.4823 190.833 25.7169 191.452 25.8876C192.092 26.0583 192.796 26.2076 193.564 26.3356C194.332 26.4423 195.1 26.5916 195.868 26.7836C196.636 26.9543 197.329 27.1996 197.948 27.5196C198.588 27.8396 199.1 28.2876 199.484 28.8636C199.889 29.4396 200.092 30.2076 200.092 31.1676C200.092 32.1916 199.793 33.0769 199.196 33.8236C198.599 34.5703 197.756 35.1569 196.668 35.5836C195.58 35.9889 194.279 36.1916 192.764 36.1916Z" fill="black"/>
</svg>