<svg width="1331" height="326" viewBox="0 0 1331 326" fill="none" xmlns="http://www.w3.org/2000/svg">
<path d="M451.4 222.806C442.306 222.806 434.147 221.201 426.925 217.991C419.703 214.647 413.952 210.167 409.672 204.55C405.526 198.932 403.253 192.713 402.851 185.892H431.138C431.673 190.172 433.746 193.716 437.357 196.525C441.102 199.334 445.716 200.738 451.2 200.738C456.549 200.738 460.695 199.668 463.638 197.528C466.714 195.388 468.252 192.646 468.252 189.303C468.252 185.692 466.38 183.017 462.635 181.278C459.024 179.406 453.206 177.4 445.181 175.26C436.889 173.254 430.068 171.181 424.718 169.041C419.502 166.901 414.955 163.624 411.077 159.21C407.332 154.797 405.459 148.845 405.459 141.356C405.459 135.203 407.198 129.586 410.675 124.504C414.286 119.422 419.369 115.409 425.922 112.467C432.609 109.525 440.433 108.054 449.394 108.054C462.635 108.054 473.2 111.397 481.091 118.084C488.982 124.638 493.329 133.532 494.131 144.766H467.249C466.848 140.353 464.975 136.875 461.632 134.334C458.422 131.659 454.075 130.322 448.592 130.322C443.509 130.322 439.564 131.258 436.755 133.13C434.08 135.003 432.743 137.611 432.743 140.954C432.743 144.699 434.615 147.575 438.36 149.581C442.105 151.453 447.923 153.393 455.814 155.399C463.838 157.405 470.459 159.478 475.675 161.618C480.891 163.758 485.371 167.101 489.116 171.649C492.995 176.062 495.001 181.947 495.134 189.303C495.134 195.722 493.329 201.473 489.718 206.556C486.24 211.638 481.158 215.65 474.471 218.593C467.918 221.401 460.227 222.806 451.4 222.806ZM573.76 108.254C587.001 108.254 597.7 112.467 605.858 120.893C614.017 129.185 618.096 140.821 618.096 155.8V221H590.01V159.612C590.01 150.785 587.803 144.031 583.39 139.35C578.976 134.535 572.958 132.127 565.334 132.127C557.577 132.127 551.425 134.535 546.878 139.35C542.464 144.031 540.257 150.785 540.257 159.612V221H512.171V109.859H540.257V123.702C544.002 118.887 548.75 115.142 554.501 112.467C560.386 109.658 566.805 108.254 573.76 108.254ZM631.564 165.028C631.564 153.794 633.771 143.83 638.184 135.137C642.731 126.443 648.817 119.756 656.44 115.075C664.197 110.394 672.824 108.054 682.32 108.054C690.612 108.054 697.834 109.725 703.986 113.069C710.272 116.413 715.287 120.625 719.032 125.708V109.859H747.319V221H719.032V204.75C715.421 209.966 710.406 214.313 703.986 217.79C697.7 221.134 690.411 222.806 682.119 222.806C672.757 222.806 664.197 220.398 656.44 215.583C648.817 210.769 642.731 204.015 638.184 195.321C633.771 186.494 631.564 176.397 631.564 165.028ZM719.032 165.43C719.032 158.609 717.695 152.791 715.02 147.976C712.345 143.027 708.734 139.283 704.187 136.742C699.639 134.067 694.758 132.729 689.542 132.729C684.326 132.729 679.511 134 675.097 136.541C670.684 139.082 667.073 142.827 664.264 147.775C661.589 152.59 660.252 158.341 660.252 165.028C660.252 171.715 661.589 177.6 664.264 182.682C667.073 187.631 670.684 191.443 675.097 194.118C679.645 196.792 684.459 198.13 689.542 198.13C694.758 198.13 699.639 196.859 704.187 194.318C708.734 191.643 712.345 187.898 715.02 183.084C717.695 178.135 719.032 172.25 719.032 165.43ZM796.818 125.908C800.429 120.826 805.377 116.613 811.663 113.27C818.083 109.792 825.372 108.054 833.53 108.054C843.026 108.054 851.586 110.394 859.209 115.075C866.966 119.756 873.051 126.443 877.465 135.137C882.012 143.696 884.286 153.66 884.286 165.028C884.286 176.397 882.012 186.494 877.465 195.321C873.051 204.015 866.966 210.769 859.209 215.583C851.586 220.398 843.026 222.806 833.53 222.806C825.372 222.806 818.15 221.134 811.864 217.79C805.712 214.447 800.696 210.234 796.818 205.151V273.962H768.731V109.859H796.818V125.908ZM855.598 165.028C855.598 158.341 854.194 152.59 851.385 147.775C848.71 142.827 845.099 139.082 840.552 136.541C836.138 134 831.323 132.729 826.107 132.729C821.025 132.729 816.21 134.067 811.663 136.742C807.25 139.283 803.639 143.027 800.83 147.976C798.155 152.925 796.818 158.742 796.818 165.43C796.818 172.117 798.155 177.935 800.83 182.883C803.639 187.832 807.25 191.643 811.663 194.318C816.21 196.859 821.025 198.13 826.107 198.13C831.323 198.13 836.138 196.792 840.552 194.118C845.099 191.443 848.71 187.631 851.385 182.682C854.194 177.734 855.598 171.849 855.598 165.028ZM949.633 132.93H930.174V221H901.686V132.93H889.047V109.859H901.686V104.242C901.686 90.6 905.565 80.5692 913.322 74.1495C921.079 67.7298 932.782 64.7206 948.43 65.1218V88.7945C941.609 88.6607 936.861 89.7975 934.186 92.2049C931.511 94.6123 930.174 98.959 930.174 105.245V109.859H949.633V132.93ZM989.902 72.5446V221H961.816V72.5446H989.902ZM1060.98 222.806C1050.28 222.806 1040.66 220.465 1032.1 215.784C1023.54 210.969 1016.78 204.215 1011.83 195.522C1007.02 186.829 1004.61 176.798 1004.61 165.43C1004.61 154.061 1007.09 144.031 1012.03 135.337C1017.12 126.644 1024 119.957 1032.7 115.276C1041.39 110.461 1051.09 108.054 1061.79 108.054C1072.49 108.054 1082.18 110.461 1090.88 115.276C1099.57 119.957 1106.39 126.644 1111.34 135.337C1116.42 144.031 1118.96 154.061 1118.96 165.43C1118.96 176.798 1116.35 186.829 1111.14 195.522C1106.06 204.215 1099.1 210.969 1090.27 215.784C1081.58 220.465 1071.82 222.806 1060.98 222.806ZM1060.98 198.33C1066.07 198.33 1070.81 197.127 1075.23 194.719C1079.78 192.178 1083.39 188.433 1086.06 183.485C1088.74 178.536 1090.07 172.518 1090.07 165.43C1090.07 154.864 1087.26 146.772 1081.65 141.155C1076.16 135.404 1069.41 132.529 1061.39 132.529C1053.36 132.529 1046.61 135.404 1041.12 141.155C1035.77 146.772 1033.1 154.864 1033.1 165.43C1033.1 175.995 1035.71 184.154 1040.92 189.905C1046.27 195.522 1052.96 198.33 1060.98 198.33ZM1287.62 109.859L1255.12 221H1224.83L1204.56 143.362L1184.3 221H1153.81L1121.11 109.859H1149.6L1169.26 194.519L1190.52 109.859H1220.21L1241.08 194.318L1260.74 109.859H1287.62Z" fill="#2E2D31"/>
<path d="M91.3846 56.2981C91.3846 47.8507 84.5641 41 76.1538 41H15.2308C6.82053 41 0 47.8507 0 56.2981V117.49C0 125.938 6.82053 132.789 15.2308 132.789H60.7898L95.6112 194C100.894 184.888 110.613 178.683 121.846 178.683H121.979L91.3846 124.905V102.192H198V71.5962H91.3846V56.2981Z" fill="#3DD4FF"/>
<path d="M214 56C214 47.1634 221.163 40 230 40H289C297.837 40 305 47.1634 305 56V115C305 123.837 297.837 131 289 131H230C221.163 131 214 123.837 214 115V56Z" fill="#FF6D77"/>
<path d="M108 211C108 202.163 115.163 195 124 195H182C190.837 195 198 202.163 198 211V270C198 278.837 190.837 286 182 286H124C115.163 286 108 278.837 108 270V211Z" fill="#25EAB5"/>
</svg>
